<?xml version="1.0" encoding="iso-8859-1"?>
<!-- Generator: Adobe Illustrator 19.0.0, SVG Export Plug-In . SVG Version: 6.00 Build 0)  -->
<svg version="1.1" id="Capa_1" xmlns="http://www.w3.org/2000/svg" xmlns:xlink="http://www.w3.org/1999/xlink" x="0px" y="0px"
	 viewBox="0 0 511.999 511.999" style="enable-background:new 0 0 511.999 511.999;" xml:space="preserve">
<path style="fill:#032E68;" d="M270.96,15.029v180.977c0,8.398-6.598,14.998-14.998,14.998s-14.998-6.6-14.998-14.998V15.029
	c0-8.4,6.598-14.998,14.998-14.998C264.362,0.031,270.96,6.63,270.96,15.029z"/>
<path style="fill:#001D56;" d="M270.96,15.029v180.977c0,8.398-6.598,14.998-14.998,14.998V0.031
	C264.362,0.031,270.96,6.63,270.96,15.029z"/>
<path style="fill:#0A4EAF;" d="M509.53,277.896c-4.798,6.898-14.097,8.698-20.997,4.199
	c-69.291-46.494-148.881-71.091-232.57-71.091c-84.289,0-163.279,24.896-232.57,71.691c-6.9,4.498-16.199,2.999-20.697-3.9
	c-4.8-6.9-3.001-16.199,3.898-20.997c74.392-50.093,159.081-76.79,249.37-76.79c89.689,0,175.278,26.397,249.37,76.189
	C512.231,261.699,514.03,270.997,509.53,277.896z"/>
<path style="fill:#08469C;" d="M509.53,277.896c-4.798,6.898-14.097,8.698-20.997,4.199
	c-69.291-46.494-148.881-71.091-232.57-71.091v-29.996c89.689,0,175.278,26.397,249.37,76.189
	C512.231,261.699,514.03,270.997,509.53,277.896z"/>
<path style="fill:#0A4EAF;" d="M105.981,511.967c-8.29,0-14.998-6.708-14.998-14.998V260.877c0-8.29,6.708-14.998,14.998-14.998
	s14.998,6.708,14.998,14.998v236.092C120.979,505.259,114.271,511.967,105.981,511.967z"/>
<path style="fill:#08469C;" d="M405.943,511.967c-8.29,0-14.998-6.708-14.998-14.998V260.877c0-8.29,6.708-14.998,14.998-14.998
	s14.998,6.708,14.998,14.998v236.092C420.941,505.259,414.233,511.967,405.943,511.967z"/>
<path style="fill:#0A4EAF;" d="M420.941,15.029v210.974c0,8.398-6.598,14.998-14.998,14.998c-8.4,0-14.998-6.6-14.998-14.998V30.028
	H120.979v195.975c0,8.398-6.598,14.998-14.998,14.998s-14.998-6.6-14.998-14.998V15.029c0-8.4,6.598-14.998,14.998-14.998h299.962
	C414.343,0.031,420.941,6.63,420.941,15.029z"/>
<path style="fill:#08469C;" d="M420.941,15.029v210.974c0,8.398-6.598,14.998-14.998,14.998c-8.4,0-14.998-6.6-14.998-14.998V30.028
	H255.962V0.031h149.981C414.343,0.031,420.941,6.63,420.941,15.029z"/>
<path style="fill:#4DBBEB;" d="M434.441,235.602l-29.996,89.989c-3.001,8.698-10.2,15.897-18.898,18.898l-69.591,23.096v144.383
	H195.97V367.584l-69.591-23.096c-8.698-3.001-15.897-10.2-18.898-18.898l-29.996-89.989c-5.399-15.899,3.6-32.997,18.898-38.096
	c15.599-5.098,32.697,2.999,38.096,18.898l25.196,75.89l54.293,17.999h83.99l54.293-17.999l25.196-75.89
	c5.098-15.298,21.598-24.297,38.096-18.898C431.141,202.605,439.539,219.703,434.441,235.602z"/>
<path style="fill:#159CE4;" d="M434.441,235.602l-29.996,89.989c-3.001,8.698-10.2,15.897-18.898,18.898l-69.591,23.096v144.383
	h-59.992V310.293h41.996l54.293-17.999l25.196-75.89c5.098-15.298,21.598-24.297,38.096-18.898
	C431.141,202.605,439.539,219.703,434.441,235.602z"/>
<path style="fill:#4DBBEB;" d="M300.956,285.996c0,24.896-20.096,44.994-44.994,44.994s-44.994-20.099-44.994-44.994
	c0-24.898,20.096-44.994,44.994-44.994S300.956,261.098,300.956,285.996z"/>
<path style="fill:#159CE4;" d="M300.956,285.996c0,24.896-20.096,44.994-44.994,44.994v-89.989
	C280.86,241.001,300.956,261.098,300.956,285.996z"/>
<g>
</g>
<g>
</g>
<g>
</g>
<g>
</g>
<g>
</g>
<g>
</g>
<g>
</g>
<g>
</g>
<g>
</g>
<g>
</g>
<g>
</g>
<g>
</g>
<g>
</g>
<g>
</g>
<g>
</g>
</svg>
