<?xml version="1.0" encoding="iso-8859-1"?>
<!-- Generator: Adobe Illustrator 19.0.0, SVG Export Plug-In . SVG Version: 6.00 Build 0)  -->
<svg version="1.1" id="Capa_1" xmlns="http://www.w3.org/2000/svg" xmlns:xlink="http://www.w3.org/1999/xlink" x="0px" y="0px"
	 viewBox="0 0 512.001 512.001" style="enable-background:new 0 0 512.001 512.001;" xml:space="preserve">
<path style="fill:#4DBBEB;" d="M512.001,338.494v30c0,8.399-6.599,15-15,15H299.998c-8.401,0-15-6.601-15-15V183.092h60.001v140.402
	H497C505.402,323.494,512.001,330.093,512.001,338.494z"/>
<path style="fill:#159CE4;" d="M512.001,338.494v30c0,8.399-6.599,15-15,15H314.998V183.092h30v140.402H497
	C505.402,323.494,512.001,330.093,512.001,338.494z"/>
<path style="fill:#FD4E26;" d="M149.996,98.491c-24.814,0-45.001-20.186-45.001-45.001S125.182,8.49,149.996,8.49
	s45.001,20.186,45.001,45.001S174.812,98.491,149.996,98.491z"/>
<path style="fill:#4DBBEB;" d="M209.997,383.495c-24.814,0-45.001-20.186-45.001-45.001c0-24.814,20.186-45.001,45.001-45.001
	s45.001,20.186,45.001,45.001C254.998,363.308,234.812,383.495,209.997,383.495z"/>
<path style="fill:#FD4E26;" d="M50.489,501.958c-15.674-5.244-24.185-22.266-18.955-37.954l25.356-76.07L5.034,280.134
	c-5.962-8.936-6.68-20.435-1.875-30.044l60.001-120.016c9.278-18.492,33.8-22.04,48.063-7.778l51.197,51.197h47.579
	c16.538,0,30,13.462,30,30s-13.462,30-30,30h-60.001c-8.013,0-15.542-3.12-21.211-8.789l-30.556-30.571L64.61,261.325
	l50.348,105.528c5.186,7.764,6.46,17.285,3.501,26.133l-30,90.001C83.293,498.502,66.546,507.26,50.489,501.958z"/>
<path style="fill:#0A4EAF;" d="M512.001,383.495v60.001H179.997c-16.5,0-30-13.5-30-30c0-16.5,13.5-30,30-30H512.001z"/>
<rect x="314.994" y="383.495" style="fill:#08469C;" width="197.002" height="60.001"/>
<path style="fill:#0A4EAF;" d="M374.999,158.492c0,32.999-27.001,60.001-60.001,60.001s-60.001-27.001-60.001-60.001
	c0-33.001,27.001-60.001,60.001-60.001S374.999,125.491,374.999,158.492z"/>
<path style="fill:#08469C;" d="M374.999,158.492c0,32.999-27.001,60.001-60.001,60.001V98.491
	C347.999,98.491,374.999,125.491,374.999,158.492z"/>
<path style="fill:#E6EEFF;" d="M314.998,188.492c-16.538,0-30-13.462-30-30s13.462-30,30-30c16.538,0,30,13.462,30,30
	S331.537,188.492,314.998,188.492z"/>
<path style="fill:#DAE2F2;" d="M344.999,158.492c0-16.538-13.462-30-30-30v60.001C331.537,188.492,344.999,175.03,344.999,158.492z"
	/>
<g>
</g>
<g>
</g>
<g>
</g>
<g>
</g>
<g>
</g>
<g>
</g>
<g>
</g>
<g>
</g>
<g>
</g>
<g>
</g>
<g>
</g>
<g>
</g>
<g>
</g>
<g>
</g>
<g>
</g>
</svg>
