<?xml version="1.0" encoding="iso-8859-1"?>
<!-- Generator: Adobe Illustrator 19.0.0, SVG Export Plug-In . SVG Version: 6.00 Build 0)  -->
<svg version="1.1" id="Capa_1" xmlns="http://www.w3.org/2000/svg" xmlns:xlink="http://www.w3.org/1999/xlink" x="0px" y="0px"
	 viewBox="0 0 512 512" style="enable-background:new 0 0 512 512;" xml:space="preserve">
<path style="fill:#032E68;" d="M277.8,270l-38.1,229.401C238.5,506.6,232.2,512,225,512H75c-7.2,0-13.5-5.4-14.7-12.599L22.2,270
	H277.8z"/>
<path style="fill:#001D56;" d="M277.8,270l-38.1,229.401C238.5,506.6,232.2,512,225,512h-75V270H277.8z"/>
<path style="fill:#0A4EAF;" d="M467,180H285c-24.853,0-45-20.147-45-45V45c0-24.853,20.147-45,45-45h182c24.853,0,45,20.147,45,45
	v90C512,159.853,491.853,180,467,180z"/>
<path style="fill:#E6EEFF;" d="M285,150c-8.276,0-15-6.724-15-15V45c0-8.276,6.724-15,15-15h182c8.276,0,15,6.724,15,15v90
	c0,8.276-6.724,15-15,15H285z"/>
<path style="fill:#4DBBEB;" d="M321.301,111.301l-60,60c-5.7,5.7-13.2,8.699-21.301,8.699h-30v75H30v-75c0-32.999,27.001-60,60-60
	h137.701L278.7,68.699c11.7-11.699,30.901-11.699,42.601,0C332.999,80.4,332.999,99.6,321.301,111.301z"/>
<path style="fill:#159CE4;" d="M321.301,111.301l-60,60c-5.7,5.7-13.2,8.699-21.301,8.699h-30v75h-60V120h77.701L278.7,68.699
	c11.7-11.699,30.901-11.699,42.601,0C332.999,80.4,332.999,99.6,321.301,111.301z"/>
<path style="fill:#08469C;" d="M285,240H15c-8.401,0-15,6.599-15,15v30c0,8.401,6.599,15,15,15h270c8.401,0,15-6.599,15-15v-30
	C300,246.599,293.401,240,285,240z"/>
<path style="fill:#063E8B;" d="M300,255v30c0,8.401-6.599,15-15,15H150v-60h135C293.401,240,300,246.599,300,255z"/>
<path style="fill:#4DBBEB;" d="M195,45c0,24.901-20.099,45-45,45s-45-20.099-45-45s20.099-45,45-45S195,20.099,195,45z"/>
<path style="fill:#159CE4;" d="M195,45c0,24.901-20.099,45-45,45V0C174.901,0,195,20.099,195,45z"/>
<g>
</g>
<g>
</g>
<g>
</g>
<g>
</g>
<g>
</g>
<g>
</g>
<g>
</g>
<g>
</g>
<g>
</g>
<g>
</g>
<g>
</g>
<g>
</g>
<g>
</g>
<g>
</g>
<g>
</g>
</svg>
