<?xml version="1.0" encoding="iso-8859-1"?>
<!-- Generator: Adobe Illustrator 19.0.0, SVG Export Plug-In . SVG Version: 6.00 Build 0)  -->
<svg version="1.1" id="Capa_1" xmlns="http://www.w3.org/2000/svg" xmlns:xlink="http://www.w3.org/1999/xlink" x="0px" y="0px"
	 viewBox="0 0 512 512" style="enable-background:new 0 0 512 512;" xml:space="preserve">
<path style="fill:#FFDFB3;" d="M390.568,135c0,8.399-6.599,15-15,15h-300c-8.401,0-15-6.601-15-15c0-36.601,26.4-67.2,61.199-73.801
	C128.368,26.4,158.969,0,195.568,0c10.499,0,20.4,2.1,30,6.599c9.6-4.499,19.501-6.599,30-6.599c36.599,0,67.2,26.4,73.801,61.199
	C364.168,67.8,390.568,98.399,390.568,135z"/>
<path style="fill:#FFC380;" d="M390.568,135c0,8.399-6.599,15-15,15h-150V6.599c9.6-4.499,19.501-6.599,30-6.599
	c36.599,0,67.2,26.4,73.801,61.199C364.168,67.8,390.568,98.399,390.568,135z"/>
<path style="fill:#4DBBEB;" d="M476.668,273.6l-56.1-83.401c-0.601-20.7-4.2-40.8-11.1-60.3c-2.1-5.999-7.8-9.899-14.101-9.899
	H55.468c-6.301,0-12.001,3.9-14.101,10.199c-2.699,7.8-5.099,15.601-6.599,24.001c-13.801,67.5,6.899,134.7,55.8,181.5V497
	c0,8.399,6.599,15,15,15h210c8.401,0,15-6.601,15-15v-76h52.2c21,0,37.8-16.8,37.8-37.8V330h23.101
	C470.667,330,491.067,302.1,476.668,273.6z"/>
<path style="fill:#159CE4;" d="M443.668,330h-23.101v53.2c0,21-16.8,37.8-37.8,37.8h-52.2v76c0,8.399-6.599,15-15,15h-90V120
	h169.799c6.301,0,12.001,3.9,14.101,9.899c6.899,19.501,10.499,39.6,11.1,60.3l56.1,83.401C491.067,302.1,470.667,330,443.668,330z"
	/>
<g>
</g>
<g>
</g>
<g>
</g>
<g>
</g>
<g>
</g>
<g>
</g>
<g>
</g>
<g>
</g>
<g>
</g>
<g>
</g>
<g>
</g>
<g>
</g>
<g>
</g>
<g>
</g>
<g>
</g>
</svg>
