<?xml version="1.0" encoding="iso-8859-1"?>
<!-- Generator: Adobe Illustrator 19.0.0, SVG Export Plug-In . SVG Version: 6.00 Build 0)  -->
<svg version="1.1" id="Capa_1" xmlns="http://www.w3.org/2000/svg" xmlns:xlink="http://www.w3.org/1999/xlink" x="0px" y="0px"
	 viewBox="0 0 512 512" style="enable-background:new 0 0 512 512;" xml:space="preserve">
<path style="fill:#FFDFB3;" d="M512,75.994v270c0,24.899-20.099,45-45,45H45c-24.901,0-45-20.101-45-45v-270
	c0-24.901,20.099-45,45-45h422C491.901,30.994,512,51.093,512,75.994z"/>
<path style="fill:#FFC380;" d="M512,75.994v270c0,24.899-20.099,45-45,45H347v-360h120C491.901,30.994,512,51.093,512,75.994z"/>
<path style="fill:#FD4E26;" d="M422,352.893v113.101c0,11.1-11.7,18.3-21.599,13.5L347,452.794l-53.401,26.7
	c-9.899,4.799-21.599-2.401-21.599-13.5V352.893c0-8.101,6.599-15,15-15h120C415.401,337.893,422,344.793,422,352.893z"/>
<path style="fill:#FD3018;" d="M422,352.893v113.101c0,11.1-11.7,18.3-21.599,13.5L347,452.794V337.893h60
	C415.401,337.893,422,344.793,422,352.893z"/>
<path style="fill:#FFF4E6;" d="M452,135.994v150l-105,24.899l-84.901,20.101H105c-8.401,0-15-6.601-15-15c0-8.401-6.599-15-15-15
	s-15-6.601-15-15v-150c0-8.401,6.599-15,15-15s15-6.601,15-15c0-8.401,6.599-15,15-15h302c8.401,0,15,6.599,15,15
	c0,8.399,6.599,15,15,15S452,127.593,452,135.994z"/>
<path style="fill:#FFDFB3;" d="M452,135.994v150l-105,24.899V90.994h60c8.401,0,15,6.599,15,15c0,8.399,6.599,15,15,15
	S452,127.593,452,135.994z"/>
<path style="fill:#FFDE33;" d="M452,285.994c0,28.799-11.7,55.199-30.901,74.099c-18.898,19.2-45.298,30.901-74.099,30.901
	c-57.9,0-105-47.1-105-105c0-28.801,11.7-55.201,30.901-74.101c18.898-19.199,45.298-30.899,74.099-30.899
	s55.201,11.7,74.099,30.899C440.3,230.793,452,257.193,452,285.994z"/>
<g>
	<path style="fill:#FCBF29;" d="M452,285.994c0,28.799-11.7,55.199-30.901,74.099c-18.898,19.2-45.298,30.901-74.099,30.901v-210
		c28.801,0,55.201,11.7,74.099,30.899C440.3,230.793,452,257.193,452,285.994z"/>
	<path style="fill:#FCBF29;" d="M347,240.994c-24.901,0-45,20.099-45,45c0,24.899,20.099,45,45,45s45-20.101,45-45
		C392,261.093,371.901,240.994,347,240.994z"/>
</g>
<path style="fill:#FE9923;" d="M392,285.994c0,24.899-20.099,45-45,45v-90C371.901,240.994,392,261.093,392,285.994z"/>
<g>
</g>
<g>
</g>
<g>
</g>
<g>
</g>
<g>
</g>
<g>
</g>
<g>
</g>
<g>
</g>
<g>
</g>
<g>
</g>
<g>
</g>
<g>
</g>
<g>
</g>
<g>
</g>
<g>
</g>
</svg>
