<?xml version="1.0" encoding="iso-8859-1"?>
<!-- Generator: Adobe Illustrator 19.0.0, SVG Export Plug-In . SVG Version: 6.00 Build 0)  -->
<svg version="1.1" id="Capa_1" xmlns="http://www.w3.org/2000/svg" xmlns:xlink="http://www.w3.org/1999/xlink" x="0px" y="0px"
	 viewBox="0 0 512 512" style="enable-background:new 0 0 512 512;" xml:space="preserve">
<g>
	<path style="fill:#0A4EAF;" d="M256,31C131.8,31,31,131.8,31,256s100.8,225,225,225s225-100.8,225-225S380.2,31,256,31z M256,451
		c-107.401,0-195-87.601-195-195c0-107.401,87.599-195,195-195s195,87.599,195,195C451,363.399,363.401,451,256,451z"/>
	<path style="fill:#0A4EAF;" d="M256,91c-90.901,0-165,74.099-165,165c0,90.899,74.099,165,165,165s165-74.101,165-165
		C421,165.099,346.901,91,256,91z M256,391c-74.399,0-135-60.601-135-135c0-74.401,60.601-135,135-135s135,60.599,135,135
		C391,330.399,330.399,391,256,391z"/>
</g>
<g>
	<path style="fill:#08469C;" d="M421,256c0,90.899-74.099,165-165,165v-30c74.399,0,135-60.601,135-135c0-74.401-60.601-135-135-135
		V91C346.901,91,421,165.099,421,256z"/>
	<path style="fill:#08469C;" d="M256,31v30c107.401,0,195,87.599,195,195c0,107.399-87.599,195-195,195v30
		c124.2,0,225-100.8,225-225S380.2,31,256,31z"/>
</g>
<path style="fill:#0A4EAF;" d="M271,316v181c0,8.399-6.599,15-15,15s-15-6.601-15-15V316c0-8.401,6.599-15,15-15
	S271,307.599,271,316z"/>
<path style="fill:#08469C;" d="M271,316v181c0,8.399-6.599,15-15,15V301C264.401,301,271,307.599,271,316z"/>
<path style="fill:#0A4EAF;" d="M271,15v181c0,8.399-6.599,15-15,15s-15-6.601-15-15V15c0-8.401,6.599-15,15-15S271,6.599,271,15z"/>
<path style="fill:#08469C;" d="M271,15v181c0,8.399-6.599,15-15,15V0C264.401,0,271,6.599,271,15z"/>
<path style="fill:#0A4EAF;" d="M196,271H15c-8.291,0-15-6.709-15-15s6.709-15,15-15h181c8.291,0,15,6.709,15,15
	C211,264.291,204.291,271,196,271z"/>
<path style="fill:#08469C;" d="M497,271H316c-8.291,0-15-6.709-15-15s6.709-15,15-15h181c8.291,0,15,6.709,15,15
	C512,264.291,505.291,271,497,271z"/>
<path style="fill:#F9BC35;" d="M256,181c-41.4,0-75,33.6-75,75s33.6,75,75,75s75-33.6,75-75S297.4,181,256,181z"/>
<path style="fill:#F39E31;" d="M331,256c0,41.4-33.6,75-75,75V181C297.4,181,331,214.6,331,256z"/>
<g>
</g>
<g>
</g>
<g>
</g>
<g>
</g>
<g>
</g>
<g>
</g>
<g>
</g>
<g>
</g>
<g>
</g>
<g>
</g>
<g>
</g>
<g>
</g>
<g>
</g>
<g>
</g>
<g>
</g>
</svg>
