<?xml version="1.0" encoding="iso-8859-1"?>
<!-- Generator: Adobe Illustrator 19.0.0, SVG Export Plug-In . SVG Version: 6.00 Build 0)  -->
<svg version="1.1" id="Capa_1" xmlns="http://www.w3.org/2000/svg" xmlns:xlink="http://www.w3.org/1999/xlink" x="0px" y="0px"
	 viewBox="0 0 512.002 512.002" style="enable-background:new 0 0 512.002 512.002;" xml:space="preserve">
<path style="fill:#C5C9F7;" d="M377.002,488.485c-8.291,0-15-6.709-15-15v-180c0-8.291,6.709-15,15-15s15,6.709,15,15v180
	C392.002,481.776,385.293,488.485,377.002,488.485z"/>
<path style="fill:#08469C;" d="M497.002,308.485h-242c-8.291,0-15-6.709-15-15s6.709-15,15-15h242c8.291,0,15,6.709,15,15
	S505.293,308.485,497.002,308.485z"/>
<path style="fill:#4DA6FF;" d="M210.002,113.485c-24.814,0-45-20.186-45-45s20.186-45,45-45s45,20.186,45,45
	S234.816,113.485,210.002,113.485z"/>
<path style="fill:#159CE4;" d="M314.108,451.205l-30-150.015c-3.34-13.374-15.308-22.705-29.106-22.705h-57.876l-15.059-128.54
	l-46.172,1.26l-30,150.015c-2.256,9.009-0.264,18.384,5.464,25.723s14.341,11.543,23.643,11.543h96.563l24.331,127.28
	c4.072,16.234,20.577,25.91,36.387,21.812C308.313,483.577,318.118,467.303,314.108,451.205z"/>
<path style="fill:#4DBBEB;" d="M195.002,278.485c-11.44,0-21.724-6.357-26.836-16.582l-30-90c-3.589-7.163-4.16-15.308-1.626-22.925
	c2.534-7.588,7.881-13.755,15.044-17.329c14.719-7.282,32.788-1.536,40.254,13.418l21.709,73.418h56.455c16.538,0,30,13.462,30,30
	s-13.462,30-30,30H195.002z"/>
<path style="fill:#E1E4FB;" d="M11.369,488.031c-8.042-2.007-12.935-10.151-10.913-18.179l30-120
	c1.992-8.057,10.063-12.993,18.179-10.913c8.042,2.007,12.935,10.151,10.913,18.179l-30,120
	C27.531,485.217,19.328,490.045,11.369,488.031z"/>
<path style="fill:#C5C9F7;" d="M180.456,477.118l-30-120c-2.021-8.027,2.871-16.172,10.913-18.179
	c7.954-2.051,16.172,2.871,18.179,10.913l30,120c2.021,8.027-2.871,16.172-10.913,18.179
	C190.687,490.042,182.475,485.229,180.456,477.118z"/>
<g>
	<path style="fill:#08469C;" d="M210.002,353.485c0,8.399-6.599,15-15,15h-150c-24.901,0-45-20.101-45-45v-180
		c0-8.401,6.599-15,15-15s15,6.599,15,15v180c0,8.399,6.599,15,15,15h150C203.403,338.485,210.002,345.084,210.002,353.485z"/>
	<path style="fill:#08469C;" d="M210.002,353.485c0,8.399-6.599,15-15,15h-75v-30h75
		C203.403,338.485,210.002,345.084,210.002,353.485z"/>
</g>
<g>
</g>
<g>
</g>
<g>
</g>
<g>
</g>
<g>
</g>
<g>
</g>
<g>
</g>
<g>
</g>
<g>
</g>
<g>
</g>
<g>
</g>
<g>
</g>
<g>
</g>
<g>
</g>
<g>
</g>
</svg>
