<?xml version="1.0" encoding="iso-8859-1"?>
<!-- Generator: Adobe Illustrator 19.0.0, SVG Export Plug-In . SVG Version: 6.00 Build 0)  -->
<svg version="1.1" id="Capa_1" xmlns="http://www.w3.org/2000/svg" xmlns:xlink="http://www.w3.org/1999/xlink" x="0px" y="0px"
	 viewBox="0 0 512 512" style="enable-background:new 0 0 512 512;" xml:space="preserve">
<path style="fill:#4DBBEB;" d="M495.561,107.171l-119.515,54.908v126.615l58.507,175.223c5.401,15.901-3.6,33.003-18.902,38.106
	c-15.302,5.1-32.705-3.001-38.106-18.902L331.041,343.3l-46.506,139.818c-5.1,14.702-22.503,24.003-38.106,18.902
	c-15.603-5.403-24.003-22.205-18.902-38.106l58.508-175.222v-81.609l-46.506,23.104c-14.403,7.501-33.304,0.599-40.206-13.202
	l-30.004-60.007c-7.501-15.002-1.5-33.005,13.202-40.206c15.002-7.501,33.005-1.5,40.206,13.202l16.802,33.304l91.511-43.804
	l137.517-65.708c15.002-7.501,33.005-1.501,40.206,13.202C516.263,81.969,510.263,99.97,495.561,107.171z"/>
<path style="fill:#159CE4;" d="M495.561,107.171l-119.515,54.908v126.615l58.507,175.223c5.401,15.901-3.6,33.003-18.902,38.106
	c-15.302,5.1-32.705-3.001-38.106-18.902L331.041,343.3V119.473l137.517-65.708c15.002-7.501,33.005-1.501,40.206,13.202
	C516.263,81.969,510.263,99.97,495.561,107.171z"/>
<path style="fill:#FD4E26;" d="M262.741,85.051L142.727,25.044c-4.659-2.329-10.182-2.095-14.592,0.659
	c-4.425,2.739-7.12,7.559-7.12,12.761v120.015c0,5.201,2.695,10.021,7.12,12.761c2.402,1.494,5.143,2.241,7.882,2.241
	c2.3,0,4.586-0.527,6.71-1.582l35.981-17.99l24.056-12.027l59.978-29.989c5.084-2.549,8.292-7.735,8.292-13.42
	S267.825,87.6,262.741,85.051z"/>
<g>
	<path style="fill:#5AF1FF;" d="M46.006,113.472H15.002C6.71,113.472,0,106.763,0,98.471s6.71-15.002,15.002-15.002h31.004
		c8.292,0,15.002,6.71,15.002,15.002S54.298,113.472,46.006,113.472z"/>
	<path style="fill:#5AF1FF;" d="M65.403,79.073L35.399,49.069c-5.86-5.86-5.86-15.354,0-21.214s15.354-5.86,21.214,0L86.617,57.86
		c5.86,5.86,5.86,15.354,0,21.214C80.756,84.934,71.263,84.934,65.403,79.073z"/>
	<path style="fill:#5AF1FF;" d="M35.399,169.084c-5.86-5.86-5.86-15.354,0-21.214l30.004-30.004c5.86-5.86,15.354-5.86,21.214,0
		c5.86,5.86,5.86,15.354,0,21.214l-30.004,30.004C50.752,174.945,41.259,174.945,35.399,169.084z"/>
</g>
<path style="fill:#4DBBEB;" d="M346.043,53.465c0,13.202-5.701,25.202-15.002,33.304c-7.801,7.201-18.302,11.701-30.004,11.701
	c-24.904,0-45.006-20.103-45.006-45.006c0-24.904,20.101-45.006,45.006-45.006c11.701,0,22.203,4.5,30.004,11.701
	C340.342,28.261,346.043,40.263,346.043,53.465z"/>
<path style="fill:#159CE4;" d="M346.043,53.465c0,13.202-5.701,25.202-15.002,33.304V20.161
	C340.342,28.261,346.043,40.263,346.043,53.465z"/>
<g>
</g>
<g>
</g>
<g>
</g>
<g>
</g>
<g>
</g>
<g>
</g>
<g>
</g>
<g>
</g>
<g>
</g>
<g>
</g>
<g>
</g>
<g>
</g>
<g>
</g>
<g>
</g>
<g>
</g>
</svg>
