<?xml version="1.0" encoding="iso-8859-1"?>
<!-- Generator: Adobe Illustrator 19.0.0, SVG Export Plug-In . SVG Version: 6.00 Build 0)  -->
<svg version="1.1" id="Capa_1" xmlns="http://www.w3.org/2000/svg" xmlns:xlink="http://www.w3.org/1999/xlink" x="0px" y="0px"
	 viewBox="0 0 512 512" style="enable-background:new 0 0 512 512;" xml:space="preserve">
<path style="fill:#FD4E26;" d="M421,45v61c0,24.899-20.099,45-45,45H136c-24.901,0-45-20.101-45-45V45c0-24.901,20.099-45,45-45h240
	C400.901,0,421,20.099,421,45z"/>
<path style="fill:#FD3018;" d="M421,45v61c0,24.899-20.099,45-45,45H256V0h120C400.901,0,421,20.099,421,45z"/>
<path style="fill:#159CE4;" d="M346,60h-45l-30,30v144.027l30,9.999l53.32-35.546c4.175-2.783,6.68-7.471,6.68-12.48V75
	C361,66.709,354.291,60,346,60z"/>
<path style="fill:#4DBBEB;" d="M211,60h-45c-8.291,0-15,6.709-15,15v121c0,5.01,2.505,9.697,6.68,12.48L211,244.027l30-9.999V90
	L211,60z"/>
<path style="fill:#E1E4FB;" d="M301,60v183.999l-30,20.099c-6.899,4.501-10.499,7.202-15,6.901c-3.9,0-8.101-2.1-15-6.901
	l-30-20.099V60H301z"/>
<path style="fill:#C5C9F7;" d="M301,60v183.999l-30,20.099c-6.899,4.501-10.499,7.202-15,6.901V60H301z"/>
<path style="fill:#FEDB41;" d="M256,241c-74.399,0-135,60.599-135,135c0,74.399,60.601,136,135,136s135-61.601,135-136
	C391,301.599,330.399,241,256,241z"/>
<g>
	<path style="fill:#FCBF29;" d="M391,376c0,74.399-60.601,136-135,136V241C330.399,241,391,301.599,391,376z"/>
	<path style="fill:#FCBF29;" d="M339.101,350.499c-1.501-5.4-6.301-9.3-12.001-10.199l-40.499-6l-18.002-36.6
		c-2.399-4.801-7.5-7.202-12.599-7.5c-5.7-0.3-11.7,2.098-14.399,7.5l-18.002,36.6l-40.499,6c-5.7,0.899-10.501,4.799-12.301,10.199
		s-0.298,11.4,3.9,15.3L204.1,394.6l-6.901,40.199c-1.199,5.7,1.201,11.4,5.7,14.702c4.801,3.3,10.801,3.898,15.901,1.199
		l36.299-19.2l0.901,0.6l35.4,18.6c2.1,1.199,4.501,1.5,6.899,1.5c3.001,0,6.301-0.899,8.701-2.699
		c4.799-3.301,6.899-9.001,6-14.702l-6.901-40.199l29.401-28.801C339.401,361.899,340.901,355.899,339.101,350.499z"/>
</g>
<path style="fill:#FE9923;" d="M335.501,365.799L306.099,394.6L313,434.799c0.899,5.7-1.201,11.4-6,14.702
	c-2.401,1.8-5.7,2.699-8.701,2.699c-2.399,0-4.799-0.3-6.899-1.5L256,432.1V290.2c5.099,0.298,10.201,2.699,12.599,7.5
	l18.001,36.599l40.499,6c5.7,0.899,10.499,4.799,12.001,10.199C340.901,355.899,339.401,361.899,335.501,365.799z"/>
<g>
</g>
<g>
</g>
<g>
</g>
<g>
</g>
<g>
</g>
<g>
</g>
<g>
</g>
<g>
</g>
<g>
</g>
<g>
</g>
<g>
</g>
<g>
</g>
<g>
</g>
<g>
</g>
<g>
</g>
</svg>
