<?xml version="1.0" encoding="iso-8859-1"?>
<!-- Generator: Adobe Illustrator 19.0.0, SVG Export Plug-In . SVG Version: 6.00 Build 0)  -->
<svg version="1.1" id="Capa_1" xmlns="http://www.w3.org/2000/svg" xmlns:xlink="http://www.w3.org/1999/xlink" x="0px" y="0px"
	 viewBox="0 0 512 512" style="enable-background:new 0 0 512 512;" xml:space="preserve">
<path style="fill:#08469C;" d="M437.009,421.977h-89.988c-8.29,0-14.998-6.708-14.998-14.998v-91.987
	c0-8.29,6.708-14.998,14.998-14.998s14.998,6.708,14.998,14.998v76.989h74.99c8.29,0,14.998,6.708,14.998,14.998
	C452.007,415.269,445.299,421.977,437.009,421.977z"/>
<g>
	<path style="fill:#0A4EAF;" d="M165.047,421.977H75.059c-8.29,0-14.998-6.708-14.998-14.998c0-8.29,6.708-14.998,14.998-14.998
		h74.99v-76.989c0-8.29,6.708-14.998,14.998-14.998s14.998,6.708,14.998,14.998v91.987
		C180.045,415.269,173.336,421.977,165.047,421.977z"/>
	<path style="fill:#0A4EAF;" d="M271.032,297.293v139.682c0,8.398-6.598,14.998-14.998,14.998c-8.4,0-14.998-6.6-14.998-14.998
		V297.293c2.701-0.899,5.098-1.8,7.499-3.3c2.1-1.199,4.798-2.1,7.499-2.1c2.701,0,5.399,0.901,7.499,2.1
		C265.934,295.494,268.332,296.395,271.032,297.293z"/>
</g>
<path style="fill:#08469C;" d="M271.032,297.293v139.682c0,8.398-6.598,14.998-14.998,14.998V291.895c2.701,0,5.399,0.901,7.499,2.1
	C265.934,295.494,268.332,296.395,271.032,297.293z"/>
<path style="fill:#FFC380;" d="M451.108,129.617c0.3-3.301,0.901-6.3,0.901-9.599c0-66.292-53.692-119.984-119.984-119.984
	c-27.595,0-54.692,9.299-75.99,26.396c-21.298-17.098-48.393-26.396-75.99-26.396c-66.292,0-119.984,53.692-119.984,119.984
	c0,3.3,0.601,6.298,0.901,9.599C-9.229,164.412-18.226,250.8,30.967,299.093c36.894,37.495,97.487,41.995,140.08,7.199
	c17.697,18.298,45.393,26.696,69.99,21.898c5.098-0.901,10.2-2.401,14.998-4.5c4.798,2.1,9.9,3.899,14.998,4.8
	c28.196,5.098,53.193-4.199,70.29-21.898c17.997,14.698,41.094,23.398,65.691,23.398C464.907,329.99,512,282.896,512,225.004v-0.3
	C511.999,186.91,491.903,149.715,451.108,129.617z"/>
<path style="fill:#FFAB4D;" d="M511.999,224.704v0.3c0,57.892-47.094,104.986-104.986,104.986c-24.597,0-47.694-8.7-65.691-23.398
	c-17.098,17.699-42.094,26.997-70.29,21.898c-5.098-0.901-10.2-2.701-14.998-4.8V26.431c21.298-17.098,48.394-26.396,75.99-26.396
	c66.292,0,119.984,53.692,119.984,119.984c0,3.3-0.601,6.298-0.901,9.599C491.903,149.715,511.999,186.91,511.999,224.704z"/>
<path style="fill:#FFDFB3;" d="M381.218,154.215c-7.799,2.699-16.199-1.802-18.897-9.599c-2.401-7.799,1.8-16.197,9.599-18.897
	c16.798-5.399,33.595-6.6,50.092-4.5v-1.199c0-49.494-40.493-89.988-89.988-89.988c-24.297,0-48.093,9.599-65.191,26.997
	c-2.999,2.999-6.898,4.198-10.798,4.198c-3.899,0-7.799-1.199-10.799-4.198c-17.098-17.399-40.895-26.997-65.191-26.997
	c-48.893,0-90.589,39.595-89.988,91.187c16.498-2.1,33.295-0.899,50.092,4.5c7.799,2.701,11.999,11.098,9.599,18.897
	c-2.699,7.797-11.098,12.297-18.897,9.599c-8.698-3.001-17.397-4.199-25.796-4.199c-41.694,0-74.99,33.595-74.99,74.99
	c0,89.387,129.582,102.585,148.18,15.897c1.8-8.098,9.9-13.198,17.997-11.398c6.9,1.501,12.698,7.799,12.698,14.7
	c0,5.998-6.399,23.997-17.798,40.194c13.799,15.298,39.396,20.096,57.392,9.599c2.1-1.199,4.798-2.1,7.499-2.1
	c2.701,0,5.399,0.901,7.499,2.1c17.997,10.498,43.593,5.699,57.392-9.599c-7.799-11.398-14.799-24.297-17.798-38.394
	c-0.3-1.201-0.3-2.1-0.3-3.001c0-7.199,5.798-13.498,12.999-14.698c8.098-1.8,16.197,3.6,17.697,11.698
	c17.699,87.287,148.48,75.29,148.48-14.998C482.003,174.91,433.411,137.116,381.218,154.215z"/>
<path style="fill:#FFC380;" d="M482.003,225.004c0,90.288-130.782,102.285-148.48,14.998c-1.5-8.1-9.599-13.498-17.697-11.698
	c-7.201,1.199-12.999,7.499-12.999,14.698c0,0.901,0,1.8,0.3,3.001c2.999,14.097,9.999,26.995,17.798,38.394
	c-13.799,15.298-39.396,20.096-57.392,9.599c-2.1-1.199-4.798-2.1-7.499-2.1V61.227c3.899,0,7.799-1.199,10.798-4.198
	c17.098-17.399,40.895-26.997,65.191-26.997c49.494,0,89.988,40.493,89.988,89.988v1.199c-16.498-2.1-33.295-0.899-50.092,4.5
	c-7.799,2.701-11.999,11.098-9.599,18.897c2.699,7.797,11.099,12.297,18.897,9.599C433.411,137.116,482.003,174.91,482.003,225.004z
	"/>
<path style="fill:#4DBBEB;" d="M256.034,421.977c-24.897,0-44.994,20.096-44.994,44.994c0,24.896,20.096,44.994,44.994,44.994
	s44.994-20.098,44.994-44.994C301.028,442.075,280.932,421.977,256.034,421.977z"/>
<path style="fill:#159CE4;" d="M467.005,451.973c-24.811,0-44.994-20.183-44.994-44.994c0-24.811,20.183-44.994,44.994-44.994
	c24.811,0,44.994,20.183,44.994,44.994C511.999,431.79,491.817,451.973,467.005,451.973z"/>
<path style="fill:#4DBBEB;" d="M45.063,451.973c-24.811,0-44.994-20.183-44.994-44.994c0-24.811,20.183-44.994,44.994-44.994
	s44.994,20.183,44.994,44.994C90.057,431.79,69.875,451.973,45.063,451.973z"/>
<path style="fill:#FFAB4D;" d="M363.836,181.827c-3.837,0-7.675-1.465-10.604-4.394c-5.858-5.858-5.858-15.35,0-21.208
	c5.668-5.668,8.788-13.196,8.788-21.208s-3.12-15.54-8.788-21.208c-5.858-5.858-5.858-15.35,0-21.208s15.35-5.858,21.208,0
	c11.336,11.336,17.576,26.392,17.576,42.416s-6.239,31.08-17.576,42.416C371.511,180.362,367.674,181.827,363.836,181.827z"/>
<g>
	<path style="fill:#FFC380;" d="M317.026,135.017c0,8.398-7.598,14.998-15.998,14.998H211.04c-8.4,0-15.998-6.6-15.998-14.998
		c0-8.4,7.598-14.998,15.998-14.998h89.988C309.428,120.019,317.026,126.617,317.026,135.017z"/>
	<path style="fill:#FFC380;" d="M148.233,181.827c-3.837,0-7.675-1.465-10.604-4.394c-11.336-11.336-17.576-26.392-17.576-42.416
		s6.239-31.08,17.576-42.416c5.858-5.858,15.35-5.858,21.208,0c5.858,5.858,5.858,15.35,0,21.208
		c-5.668,5.668-8.788,13.196-8.788,21.208s3.12,15.54,8.788,21.208c5.858,5.858,5.858,15.35,0,21.208
		C155.908,180.362,152.07,181.827,148.233,181.827z"/>
</g>
<path style="fill:#FFAB4D;" d="M437.009,240.002c-8.29,0-14.998-6.708-14.998-14.998c0-8.275-6.723-14.998-14.998-14.998
	c-8.29,0-14.998-6.708-14.998-14.998c0-8.29,6.708-14.998,14.998-14.998c24.811,0,44.994,20.183,44.994,44.994
	C452.007,233.294,445.299,240.002,437.009,240.002z"/>
<path style="fill:#FFC380;" d="M75.059,240.002c-8.29,0-14.998-6.708-14.998-14.998c0-24.811,20.183-44.994,44.994-44.994
	c8.29,0,14.998,6.708,14.998,14.998c0,8.29-6.708,14.998-14.998,14.998c-8.275,0-14.998,6.723-14.998,14.998
	C90.057,233.294,83.349,240.002,75.059,240.002z"/>
<path style="fill:#FFAB4D;" d="M317.026,135.017c0,8.398-7.598,14.998-15.998,14.998h-44.994v-29.996h44.994
	C309.428,120.019,317.026,126.617,317.026,135.017z"/>
<path style="fill:#159CE4;" d="M301.028,466.971c0,24.896-20.096,44.994-44.994,44.994v-89.988
	C280.932,421.977,301.028,442.075,301.028,466.971z"/>
<rect x="241.036" y="45.024" style="fill:#FFC380;" width="29.996" height="269.963"/>
<rect x="256.034" y="45.024" style="fill:#FFAB4D;" width="14.998" height="269.963"/>
<g>
</g>
<g>
</g>
<g>
</g>
<g>
</g>
<g>
</g>
<g>
</g>
<g>
</g>
<g>
</g>
<g>
</g>
<g>
</g>
<g>
</g>
<g>
</g>
<g>
</g>
<g>
</g>
<g>
</g>
</svg>
