<?xml version="1.0" encoding="iso-8859-1"?>
<!-- Generator: Adobe Illustrator 19.0.0, SVG Export Plug-In . SVG Version: 6.00 Build 0)  -->
<svg version="1.1" id="Capa_1" xmlns="http://www.w3.org/2000/svg" xmlns:xlink="http://www.w3.org/1999/xlink" x="0px" y="0px"
	 viewBox="0 0 512 512" style="enable-background:new 0 0 512 512;" xml:space="preserve">
<path style="fill:#4DBBEB;" d="M476.797,273.46l-56.133-83.448c-1.501-57.034-27.615-110.467-72.043-146.786
	C313.501,14.709,270.276,0,225.55,0c-13.809,0-27.916,1.2-41.724,4.202C109.683,19.51,49.647,79.846,34.639,153.99
	c-13.809,67.54,6.903,134.779,55.833,181.606v161.395c0,8.406,6.603,15.009,15.009,15.009h210.123
	c8.406,0,15.009-6.603,15.009-15.009v-76.045h52.231c21.012,0,37.822-16.81,37.822-37.822v-53.231h23.115
	C470.793,329.893,491.205,301.977,476.797,273.46z"/>
<path style="fill:#159CE4;" d="M443.778,329.893h-23.115v53.231c0,21.012-16.81,37.822-37.822,37.822h-52.231v76.045
	c0,8.406-6.603,15.009-15.009,15.009h-90.053V0c44.726,0,87.952,14.709,123.071,43.225c44.427,36.32,70.542,89.753,72.043,146.786
	l56.133,83.448C491.205,301.977,470.793,329.893,443.778,329.893z"/>
<path style="fill:#E6EEFF;" d="M240.559,284.867v30.018c0,8.406-6.603,15.009-15.009,15.009s-15.009-6.603-15.009-15.009v-30.018
	c0-8.406,6.603-15.009,15.009-15.009S240.559,276.461,240.559,284.867z"/>
<path style="fill:#DAE2F2;" d="M240.559,284.867v30.018c0,8.406-6.603,15.009-15.009,15.009v-60.035
	C233.955,269.858,240.559,276.461,240.559,284.867z"/>
<path style="fill:#E6EEFF;" d="M240.559,74.744v30.018c0,8.406-6.603,15.009-15.009,15.009s-15.009-6.603-15.009-15.009V74.744
	c0-8.406,6.603-15.009,15.009-15.009S240.559,66.338,240.559,74.744z"/>
<path style="fill:#DAE2F2;" d="M240.559,74.744v30.018c0,8.406-6.603,15.009-15.009,15.009V59.735
	C233.955,59.735,240.559,66.338,240.559,74.744z"/>
<g>
	<path style="fill:#E6EEFF;" d="M225.55,89.753c-57.934,0-105.062,47.128-105.062,105.062s47.128,105.062,105.062,105.062
		s105.062-47.128,105.062-105.062S283.483,89.753,225.55,89.753z"/>
	<path style="fill:#E6EEFF;" d="M161.909,146.168c-3.84,0-7.68-1.466-10.611-4.398l-21.267-21.252
		c-5.862-5.848-5.862-15.361,0-21.223c5.862-5.862,15.361-5.862,21.223,0l21.267,21.252c5.862,5.848,5.862,15.361,0,21.223
		C169.59,144.702,165.749,146.168,161.909,146.168z"/>
</g>
<g>
	<path style="fill:#DAE2F2;" d="M311.997,296.256c-3.84,0-7.68-1.466-10.611-4.398l-21.267-21.252
		c-5.862-5.848-5.862-15.361,0-21.223c5.862-5.862,15.361-5.862,21.223,0l21.267,21.252c5.862,5.848,5.862,15.361,0,21.223
		C319.678,294.79,315.837,296.256,311.997,296.256z"/>
	<path style="fill:#DAE2F2;" d="M289.206,146.168c-3.84,0-7.681-1.466-10.611-4.398c-5.862-5.862-5.862-15.361,0-21.223
		l21.252-21.252c5.862-5.862,15.361-5.862,21.223,0c5.862,5.862,5.862,15.361,0,21.223l-21.252,21.252
		C296.886,144.702,293.046,146.168,289.206,146.168z"/>
</g>
<path style="fill:#E6EEFF;" d="M135.498,209.823H105.48c-8.296,0-15.009-6.713-15.009-15.009c0-8.296,6.713-15.009,15.009-15.009
	h30.018c8.296,0,15.009,6.713,15.009,15.009C150.506,203.11,143.794,209.823,135.498,209.823z"/>
<path style="fill:#DAE2F2;" d="M345.621,209.823h-30.018c-8.296,0-15.009-6.713-15.009-15.009c0-8.296,6.713-15.009,15.009-15.009
	h30.018c8.296,0,15.009,6.713,15.009,15.009C360.63,203.11,353.917,209.823,345.621,209.823z"/>
<path style="fill:#E6EEFF;" d="M140.642,294.731c-3.84,0-7.68-1.466-10.611-4.398c-5.862-5.848-5.862-15.361,0-21.223l21.252-21.267
	c5.862-5.862,15.361-5.862,21.223,0c5.862,5.848,5.862,15.361,0,21.223l-21.252,21.267
	C148.322,293.265,144.482,294.731,140.642,294.731z"/>
<path style="fill:#DAE2F2;" d="M330.612,194.814c0,57.934-47.128,105.062-105.062,105.062V89.753
	C283.483,89.753,330.612,136.88,330.612,194.814z"/>
<path style="fill:#4DBBEB;" d="M225.55,119.77c-41.424,0-75.044,33.62-75.044,75.044s33.62,75.044,75.044,75.044
	s75.044-33.62,75.044-75.044S266.975,119.77,225.55,119.77z"/>
<path style="fill:#159CE4;" d="M300.594,194.814c0,41.424-33.62,75.044-75.044,75.044V119.77
	C266.975,119.77,300.594,153.39,300.594,194.814z"/>
<path style="fill:#E6EEFF;" d="M225.55,149.788c-24.916,0-45.026,20.111-45.026,45.026s20.111,45.026,45.026,45.026
	s45.026-20.111,45.026-45.026S250.465,149.788,225.55,149.788z"/>
<path style="fill:#DAE2F2;" d="M270.577,194.814c0,24.916-20.111,45.026-45.026,45.026v-90.053
	C250.465,149.788,270.577,169.899,270.577,194.814z"/>
<path style="fill:#4DBBEB;" d="M225.55,179.805c-8.406,0-15.009,6.603-15.009,15.009s6.603,15.009,15.009,15.009
	s15.009-6.603,15.009-15.009S233.955,179.805,225.55,179.805z"/>
<path style="fill:#159CE4;" d="M240.559,194.814c0,8.406-6.603,15.009-15.009,15.009v-30.018
	C233.955,179.805,240.559,186.408,240.559,194.814z"/>
<g>
</g>
<g>
</g>
<g>
</g>
<g>
</g>
<g>
</g>
<g>
</g>
<g>
</g>
<g>
</g>
<g>
</g>
<g>
</g>
<g>
</g>
<g>
</g>
<g>
</g>
<g>
</g>
<g>
</g>
</svg>
