<?xml version="1.0" encoding="iso-8859-1"?>
<!-- Generator: Adobe Illustrator 19.0.0, SVG Export Plug-In . SVG Version: 6.00 Build 0)  -->
<svg version="1.1" id="Capa_1" xmlns="http://www.w3.org/2000/svg" xmlns:xlink="http://www.w3.org/1999/xlink" x="0px" y="0px"
	 viewBox="0 0 512.001 512.001" style="enable-background:new 0 0 512.001 512.001;" xml:space="preserve">
<path style="fill:#E1E4FB;" d="M98.108,477.224l-21.286,21.286c-17.687,17.687-46.168,17.687-63.557,0
	c-17.687-17.389-17.687-45.87,0-63.557l21.286-21.286c5.696-5.696,15.29-5.696,20.986,0l21.284,21.286l21.286,21.285
	C103.804,461.935,103.804,471.528,98.108,477.224z"/>
<path style="fill:#C5C9F7;" d="M98.108,477.224l-21.286,21.286c-17.687,17.687-46.168,17.687-63.557,0l63.557-63.557l21.286,21.285
	C103.804,461.935,103.804,471.528,98.108,477.224z"/>
<path style="fill:#E1E4FB;" d="M498.735,76.598L477.45,97.883c-5.696,5.696-15.29,5.696-20.986,0l-42.57-42.57
	c-5.696-5.696-5.696-15.29,0-20.986l21.284-21.286c17.088-17.088,46.469-17.088,63.559,0
	C516.422,30.73,516.422,58.911,498.735,76.598z"/>
<path style="fill:#C5C9F7;" d="M498.735,76.598L477.45,97.883c-5.696,5.696-15.29,5.696-20.986,0l-21.286-21.285l63.559-63.557
	C516.422,30.73,516.422,58.911,498.735,76.598z"/>
<path style="fill:#159CE4;" d="M498.735,97.883l-42.272-42.27l-42.57-42.572c-16.789-17.088-46.468-17.088-63.557,0l-20.986,21.286
	c-17.689,17.389-17.689,45.868,0,63.557l84.542,84.542c8.994,8.994,20.386,13.191,31.778,13.191
	c11.692,0,23.085-4.197,31.778-13.191l21.286-20.986c8.393-8.693,13.189-19.786,13.189-31.778S507.129,106.276,498.735,97.883z"/>
<path style="fill:#1183D0;" d="M511.924,129.661c0,11.993-4.796,23.085-13.189,31.778l-21.286,20.986
	c-8.693,8.994-20.085,13.191-31.778,13.191c-11.392,0-22.784-4.197-31.778-13.191l-42.272-42.272l84.843-84.54l42.272,42.27
	C507.129,106.276,511.924,117.669,511.924,129.661z"/>
<path style="fill:#159CE4;" d="M182.651,413.668l-42.272-42.27l-42.27-42.272c-17.689-17.687-46.17-17.687-63.557,0l-21.286,20.986
	c-17.687,17.687-17.687,46.168,0,63.557l84.843,84.843c8.693,8.693,20.085,13.191,31.778,13.191
	c11.392,0,23.085-4.498,31.778-13.191l20.986-21.286C200.338,459.836,200.338,431.357,182.651,413.668z"/>
<path style="fill:#1183D0;" d="M182.651,477.224l-20.986,21.286c-8.693,8.693-20.386,13.191-31.778,13.191
	c-11.692,0-23.085-4.498-31.778-13.191l-42.272-42.272l84.542-84.841l42.272,42.27C200.338,431.357,200.338,459.836,182.651,477.224
	z"/>
<rect x="167.534" y="210.834" transform="matrix(-0.7071 0.7071 -0.7071 -0.7071 617.8829 255.6101)" style="fill:#E1E4FB;" width="176.938" height="89.878"/>
<rect x="183.409" y="249.196" transform="matrix(-0.7071 0.7071 -0.7071 -0.7071 656.2216 271.5165)" style="fill:#C5C9F7;" width="176.938" height="44.941"/>
<path style="fill:#4DBBEB;" d="M267.492,371.398l-63.557-63.559l-63.557-63.557c-17.387-17.687-46.168-17.687-63.557,0
	l-21.284,20.986c-8.395,8.695-13.191,19.788-13.191,31.778c0,11.993,4.796,23.385,13.191,31.778l63.557,63.856l63.557,63.557
	c8.693,8.395,20.085,13.191,32.078,13.191c11.991,0,23.083-4.796,31.778-13.191l20.985-21.285
	C285.18,417.565,285.18,388.785,267.492,371.398z"/>
<path style="fill:#159CE4;" d="M267.492,434.954l-20.985,21.285c-8.695,8.395-19.788,13.191-31.778,13.191
	c-11.993,0-23.385-4.796-32.078-13.191l-63.557-63.557l84.841-84.843l63.557,63.559C285.18,388.785,285.18,417.565,267.492,434.954z
	"/>
<path style="fill:#4DBBEB;" d="M456.463,182.425L329.35,55.312c-17.689-17.389-46.168-17.389-63.856,0l-20.986,21.284
	c-8.693,8.395-13.191,19.788-13.191,31.778c0,11.993,4.498,23.385,13.191,31.778l63.557,63.557l63.557,63.559
	c8.395,8.693,19.788,13.191,31.778,13.191c11.993,0,23.385-4.498,31.778-13.191l21.286-20.986
	C473.852,228.594,473.852,200.112,456.463,182.425z"/>
<path style="fill:#159CE4;" d="M456.463,246.283l-21.286,20.986c-8.393,8.693-19.786,13.191-31.778,13.191
	c-11.991,0-23.383-4.498-31.778-13.191l-63.557-63.559l84.843-84.841l63.557,63.557
	C473.852,200.112,473.852,228.594,456.463,246.283z"/>
<g>
</g>
<g>
</g>
<g>
</g>
<g>
</g>
<g>
</g>
<g>
</g>
<g>
</g>
<g>
</g>
<g>
</g>
<g>
</g>
<g>
</g>
<g>
</g>
<g>
</g>
<g>
</g>
<g>
</g>
</svg>
