<?xml version="1.0" encoding="iso-8859-1"?>
<!-- Generator: Adobe Illustrator 19.0.0, SVG Export Plug-In . SVG Version: 6.00 Build 0)  -->
<svg version="1.1" id="Capa_1" xmlns="http://www.w3.org/2000/svg" xmlns:xlink="http://www.w3.org/1999/xlink" x="0px" y="0px"
	 viewBox="0 0 512 512" style="enable-background:new 0 0 512 512;" xml:space="preserve">
<path style="fill:#FFC380;" d="M376,60c-16.569,0-30,13.431-30,30V60c0-16.569-13.431-30-30-30s-30,13.431-30,30V30
	c0-16.569-13.431-30-30-30s-30,13.431-30,30v30c0-16.569-13.431-30-30-30s-30,13.431-30,30v90l60,301h105c8.291,0,15-6.709,15-15
	v-85.107c36.284-17.212,60-55.097,60-95.893c0-15.519,0-146.898,0-165C406,73.431,392.569,60,376,60z"/>
<path style="fill:#FFDFB3;" d="M256,120c-16.2,0-58.8,0-75,0c-41.353,0-75,33.647-75,75v60c0,40.796,23.716,78.681,60,95.893V436
	c0,8.291,6.709,15,15,15c26.042,0,48.958,0,75,0c0-74.67,0-121.543,0-196c0-29.392-12.217-55.92-31.749-75H226h30
	c16.569,0,30-13.433,30-30C286,133.431,272.569,120,256,120z"/>
<path style="fill:#4DBBEB;" d="M361,421H151c-8.401,0-15,6.599-15,15v61c0,8.399,6.599,15,15,15h210c8.401,0,15-6.601,15-15v-61
	C376,427.599,369.401,421,361,421z"/>
<path style="fill:#159CE4;" d="M376,436v61c0,8.399-6.599,15-15,15H256v-91h105C369.401,421,376,427.599,376,436z"/>
<g>
</g>
<g>
</g>
<g>
</g>
<g>
</g>
<g>
</g>
<g>
</g>
<g>
</g>
<g>
</g>
<g>
</g>
<g>
</g>
<g>
</g>
<g>
</g>
<g>
</g>
<g>
</g>
<g>
</g>
</svg>
