<?xml version="1.0" encoding="iso-8859-1"?>
<!-- Generator: Adobe Illustrator 19.0.0, SVG Export Plug-In . SVG Version: 6.00 Build 0)  -->
<svg version="1.1" id="Capa_1" xmlns="http://www.w3.org/2000/svg" xmlns:xlink="http://www.w3.org/1999/xlink" x="0px" y="0px"
	 viewBox="0 0 512 512" style="enable-background:new 0 0 512 512;" xml:space="preserve">
<path style="fill:#4DBBEB;" d="M256,180v91c0,19.799-17.401,36.301-45,26.4V482c0,16.5-13.5,30-30,30s-30-13.5-30-30V376
	c0-8.401-6.599-15-15-15s-15,6.599-15,15v106c0,16.5-13.5,30-30,30s-30-13.5-30-30V297.4c-27.599,9.901-45-6.601-45-26.4v-91
	c0-32.999,27.001-60,60-60h120C228.999,120,256,147.001,256,180z"/>
<path style="fill:#159CE4;" d="M256,180v91c0,19.799-17.401,36.301-45,26.4V482c0,16.5-13.5,30-30,30s-30-13.5-30-30V376
	c0-8.401-6.599-15-15-15V120h60C228.999,120,256,147.001,256,180z"/>
<g>
	<path style="fill:#0A4EAF;" d="M391,467h-90c-8.291,0-15-6.709-15-15V60c0-8.291,6.709-15,15-15h90c8.291,0,15,6.709,15,15
		s-6.709,15-15,15h-75v362h75c8.291,0,15,6.709,15,15S399.291,467,391,467z"/>
	<path style="fill:#0A4EAF;" d="M391,271h-90c-8.291,0-15-6.709-15-15s6.709-15,15-15h90c8.291,0,15,6.709,15,15
		C406,264.291,399.291,271,391,271z"/>
</g>
<g>
	<path style="fill:#08469C;" d="M391,437h-75V256h-30v196c0,8.291,6.709,15,15,15h90c8.291,0,15-6.709,15-15S399.291,437,391,437z"
		/>
	<path style="fill:#08469C;" d="M301,271h90c8.291,0,15-6.709,15-15H286C286,264.291,292.709,271,301,271z"/>
</g>
<path style="fill:#4DBBEB;" d="M181,45c0,24.901-20.099,45-45,45S91,69.901,91,45s20.099-45,45-45S181,20.099,181,45z"/>
<path style="fill:#159CE4;" d="M181,45c0,24.901-20.099,45-45,45V0C160.901,0,181,20.099,181,45z"/>
<path style="fill:#FCBF29;" d="M481,316h-90c-8.291,0-15-6.709-15-15v-90c0-8.291,6.709-15,15-15h90c8.291,0,15,6.709,15,15v90
	C496,309.291,489.291,316,481,316z"/>
<path style="fill:#FE9923;" d="M376,256v45c0,8.291,6.709,15,15,15h90c8.291,0,15-6.709,15-15v-45H376z"/>
<path style="fill:#FCBF29;" d="M481,120h-90c-8.291,0-15-6.709-15-15V15c0-8.291,6.709-15,15-15h90c8.291,0,15,6.709,15,15v90
	C496,113.291,489.291,120,481,120z"/>
<path style="fill:#FE9923;" d="M481,512h-90c-8.291,0-15-6.709-15-15v-90c0-8.291,6.709-15,15-15h90c8.291,0,15,6.709,15,15v90
	C496,505.291,489.291,512,481,512z"/>
<g>
</g>
<g>
</g>
<g>
</g>
<g>
</g>
<g>
</g>
<g>
</g>
<g>
</g>
<g>
</g>
<g>
</g>
<g>
</g>
<g>
</g>
<g>
</g>
<g>
</g>
<g>
</g>
<g>
</g>
</svg>
