<?xml version="1.0" encoding="iso-8859-1"?>
<!-- Generator: Adobe Illustrator 19.0.0, SVG Export Plug-In . SVG Version: 6.00 Build 0)  -->
<svg version="1.1" id="Capa_1" xmlns="http://www.w3.org/2000/svg" xmlns:xlink="http://www.w3.org/1999/xlink" x="0px" y="0px"
	 viewBox="0 0 512 512" style="enable-background:new 0 0 512 512;" xml:space="preserve">
<path style="fill:#FD4E26;" d="M398.5,180l-5.4,30l-54.6,302h-60V346c0-8.401-6.599-15-15-15s-15,6.599-15,15v166h-90l-24.6-302
	l-5.4-30c0-33.001,27.001-60,60-60h150C371.499,120,398.5,146.999,398.5,180z"/>
<path style="fill:#FD3018;" d="M398.5,180l-5.4,30l-54.6,302h-60V346c0-8.401-6.599-15-15-15V120h75
	C371.499,120,398.5,146.999,398.5,180z"/>
<path style="fill:#FD4E26;" d="M308.5,45c0,24.899-20.099,45-45,45s-45-20.101-45-45c0-24.901,20.099-45,45-45
	S308.5,20.099,308.5,45z"/>
<path style="fill:#FD3018;" d="M308.5,45c0,24.899-20.099,45-45,45V0C288.401,0,308.5,20.099,308.5,45z"/>
<g>
	<path style="fill:#4DBBEB;" d="M113.5,150c-24.814,0-45-20.186-45-45s20.186-45,45-45s45,20.186,45,45S138.314,150,113.5,150z"/>
	<path style="fill:#4DBBEB;" d="M143.5,195h-75c-33.137,0-60,26.862-60,60c0,17.927,0,65.951,0,83.5C8.5,350.926,18.574,361,31,361
		s22.5-10.074,22.5-22.5V497c0,8.284,6.716,15,15,15h30V406c0-8.291,6.709-15,15-15s15,6.709,15,15v106h45V225
		C173.5,208.431,160.069,195,143.5,195z"/>
</g>
<g>
	<path style="fill:#159CE4;" d="M398.5,150c24.814,0,45-20.186,45-45s-20.186-45-45-45s-45,20.186-45,45S373.686,150,398.5,150z"/>
	<path style="fill:#159CE4;" d="M368.5,195h75c33.137,0,60,26.862,60,60c0,17.927,0,65.951,0,83.5c0,12.426-10.074,22.5-22.5,22.5
		s-22.5-10.074-22.5-22.5V497c0,8.284-6.716,15-15,15h-30V406c0-8.291-6.709-15-15-15s-15,6.709-15,15v106h-45V225
		C338.5,208.431,351.931,195,368.5,195z"/>
</g>
<g>
</g>
<g>
</g>
<g>
</g>
<g>
</g>
<g>
</g>
<g>
</g>
<g>
</g>
<g>
</g>
<g>
</g>
<g>
</g>
<g>
</g>
<g>
</g>
<g>
</g>
<g>
</g>
<g>
</g>
</svg>
