<?xml version="1.0" encoding="iso-8859-1"?>
<!-- Generator: Adobe Illustrator 19.0.0, SVG Export Plug-In . SVG Version: 6.00 Build 0)  -->
<svg version="1.1" id="Capa_1" xmlns="http://www.w3.org/2000/svg" xmlns:xlink="http://www.w3.org/1999/xlink" x="0px" y="0px"
	 viewBox="0 0 512 512" style="enable-background:new 0 0 512 512;" xml:space="preserve">
<g>
	<path style="fill:#4DBBEB;" d="M407,271c-32.999,0-60,27.001-60,60s27.001,60,60,60s60-27.001,60-60S439.999,271,407,271z"/>
	<path style="fill:#4DBBEB;" d="M407,391c-57.9,0-105,48.1-105,106c0,8.401,6.599,15,15,15h180c8.401,0,15-6.599,15-15
		C512,439.1,464.9,391,407,391z"/>
</g>
<g>
	<path style="fill:#159CE4;" d="M512,497c0,8.401-6.599,15-15,15h-90V391C464.9,391,512,439.1,512,497z"/>
	<path style="fill:#159CE4;" d="M467,331c0,32.999-27.001,60-60,60V271C439.999,271,467,298.001,467,331z"/>
</g>
<g>
	<path style="fill:#4DBBEB;" d="M105,271c-32.999,0-60,27.001-60,60s27.001,60,60,60s60-27.001,60-60S137.999,271,105,271z"/>
	<path style="fill:#4DBBEB;" d="M105,391C47.1,391,0,439.1,0,497c0,8.401,6.599,15,15,15h180c8.401,0,15-6.599,15-15
		C210,439.1,162.9,391,105,391z"/>
</g>
<path style="fill:#159CE4;" d="M210,497c0,8.401-6.599,15-15,15h-90V391C162.9,391,210,439.1,210,497z"/>
<path style="fill:#4596E6;" d="M165,331c0,32.999-27.001,60-60,60V271C137.999,271,165,298.001,165,331z"/>
<g>
	<path style="fill:#4DBBEB;" d="M256,0c-32.999,0-60,27.001-60,60s27.001,60,60,60s60-27.001,60-60S288.999,0,256,0z"/>
	<path style="fill:#4DBBEB;" d="M256,120c-57.9,0-105,48.1-105,106c0,8.401,6.599,15,15,15h180c8.401,0,15-6.599,15-15
		C361,168.1,313.9,120,256,120z"/>
</g>
<g>
	<path style="fill:#159CE4;" d="M361,226c0,8.401-6.599,15-15,15h-90V120C313.9,120,361,168.1,361,226z"/>
	<path style="fill:#159CE4;" d="M316,60c0,32.999-27.001,60-60,60V0C288.999,0,316,27.001,316,60z"/>
</g>
<path style="fill:#0A4EAF;" d="M329.5,382.599c-3.9,7.5-12.599,10.501-20.099,6.901L256,362.8l-53.401,26.7
	c-7.5,3.6-16.199,0.599-20.099-6.901c-3.6-7.2-0.599-16.199,6.901-20.099L241,336.7V286c0-8.401,6.599-15,15-15s15,6.599,15,15v50.7
	l51.599,25.8C330.099,366.4,333.1,375.399,329.5,382.599z"/>
<path style="fill:#08469C;" d="M329.5,382.599c-3.9,7.5-12.599,10.501-20.099,6.901L256,362.8V271c8.401,0,15,6.599,15,15v50.7
	l51.599,25.8C330.099,366.4,333.1,375.399,329.5,382.599z"/>
<g>
</g>
<g>
</g>
<g>
</g>
<g>
</g>
<g>
</g>
<g>
</g>
<g>
</g>
<g>
</g>
<g>
</g>
<g>
</g>
<g>
</g>
<g>
</g>
<g>
</g>
<g>
</g>
<g>
</g>
</svg>
