<?xml version="1.0" encoding="iso-8859-1"?>
<!-- Generator: Adobe Illustrator 19.0.0, SVG Export Plug-In . SVG Version: 6.00 Build 0)  -->
<svg version="1.1" id="Capa_1" xmlns="http://www.w3.org/2000/svg" xmlns:xlink="http://www.w3.org/1999/xlink" x="0px" y="0px"
	 viewBox="0 0 512 512" style="enable-background:new 0 0 512 512;" xml:space="preserve">
<g>
	<path style="fill:#159CE4;" d="M75.02,299.424L45.41,462.078c-1.318,7.866,0.527,15.806,5.2,22.339
		c4.658,6.533,11.572,10.854,19.512,12.188c1.641,0.278,3.296,0.396,4.907,0.396c14.707,0,27.144-10.547,29.561-25.063
		l24.245-130.466L75.02,299.424z"/>
	<path style="fill:#159CE4;" d="M83.789,129.789l-75,60c-11.689,11.689-11.689,30.732,0,42.422l80.078,62.49L83.789,129.789z"/>
	<path style="fill:#159CE4;" d="M253.462,397.508l-30-75c-2.974-8.906-10.063-15.996-18.97-18.97L135,280.379V151H75v151.835
		c0,10.21,7.676,23.335,20.508,27.627l75.762,25.269l25.283,60.776c5.178,15.61,22.073,24.269,37.939,18.955
		C250.098,430.251,258.712,413.315,253.462,397.508z"/>
</g>
<g>
	<path style="fill:#4DBBEB;" d="M135,241c-11.44,0-21.724-6.357-26.836-16.582l-30-60c-7.411-14.793-1.448-32.836,13.418-40.254
		c15.04-7.52,32.893-1.304,40.254,13.418L153.545,181H240c16.538,0,30,13.462,30,30s-13.462,30-30,30H135z"/>
	<path style="fill:#4DBBEB;" d="M120,91c-24.814,0-45-20.186-45-45S95.186,0,120,0s45,21.186,45,46S144.814,91,120,91z"/>
</g>
<path style="fill:#08469C;" d="M507.605,245.395l-29.982-29.982c-4.135-4.146-10.582-5.645-16.351-3.259
	c-1.846,0.764-3.508,1.868-4.896,3.259l-29.982,29.982c-5.859,5.859-5.859,15.352,0,21.211s15.352,5.859,21.211,0l4.395-4.395V362
	H315c-8.291,0-15,6.709-15,15v45H165c-8.291,0-15,6.709-15,15v45H15c-8.291,0-15,6.709-15,15s6.709,15,15,15h150
	c8.291,0,15-6.709,15-15v-45h135c8.291,0,15-6.709,15-15v-45h137c8.291,0,15-6.709,15-15V262.211l4.395,4.395
	c5.86,5.86,15.351,5.86,21.211,0C513.465,260.746,513.465,251.254,507.605,245.395z"/>
<g>
</g>
<g>
</g>
<g>
</g>
<g>
</g>
<g>
</g>
<g>
</g>
<g>
</g>
<g>
</g>
<g>
</g>
<g>
</g>
<g>
</g>
<g>
</g>
<g>
</g>
<g>
</g>
<g>
</g>
</svg>
