<?xml version="1.0" encoding="iso-8859-1"?>
<!-- Generator: Adobe Illustrator 19.0.0, SVG Export Plug-In . SVG Version: 6.00 Build 0)  -->
<svg version="1.1" id="Capa_1" xmlns="http://www.w3.org/2000/svg" xmlns:xlink="http://www.w3.org/1999/xlink" x="0px" y="0px"
	 viewBox="0 0 512 512" style="enable-background:new 0 0 512 512;" xml:space="preserve">
<path style="fill:#08469C;" d="M466,30c-63.267,0-105.387,0-167.563,0c-8.291,0-15,6.709-15,15s6.709,15,15,15
	c85.172,0,63.332,0,152.563,0v437c0,8.291,6.709,15,15,15s15-6.709,15-15V45C481,36.709,474.291,30,466,30z"/>
<path style="fill:#0A4EAF;" d="M213.563,30C151.219,30,109.348,30,46,30c-8.291,0-15,6.709-15,15v452c0,8.291,6.709,15,15,15
	s15-6.709,15-15V60c89.186,0,67.413,0,152.563,0c8.291,0,15-6.709,15-15S221.854,30,213.563,30z"/>
<path style="fill:#4DBBEB;" d="M406,30v90c0,12.9-8.101,24.3-20.4,28.5l-54.6,18V482c0,16.5-13.5,30-30,30s-30-13.5-30-30V346
	c0-8.401-6.599-15-15-15s-15,6.599-15,15c0,48.6,0,27.1,0,136c0,16.5-13.5,30-30,30s-30-13.5-30-30V166.5l-54.6-18
	c-12.299-4.2-20.4-15.6-20.4-28.5V30c0-16.5,13.5-30,30-30s30,13.5,30,30v68.399L230.799,120h50.402L346,98.399V30
	c0-16.5,13.5-30,30-30S406,13.5,406,30z"/>
<path style="fill:#159CE4;" d="M406,30v90c0,12.9-8.101,24.3-20.4,28.5l-54.6,18V482c0,16.5-13.5,30-30,30s-30-13.5-30-30V346
	c0-8.401-6.599-15-15-15V120h25.201L346,98.399V30c0-16.5,13.5-30,30-30S406,13.5,406,30z"/>
<path style="fill:#4DBBEB;" d="M301,45c0,24.899-20.099,45-45,45s-45-20.101-45-45c0-24.901,20.099-45,45-45S301,20.099,301,45z"/>
<path style="fill:#159CE4;" d="M301,45c0,24.899-20.099,45-45,45V0C280.901,0,301,20.099,301,45z"/>
<g>
</g>
<g>
</g>
<g>
</g>
<g>
</g>
<g>
</g>
<g>
</g>
<g>
</g>
<g>
</g>
<g>
</g>
<g>
</g>
<g>
</g>
<g>
</g>
<g>
</g>
<g>
</g>
<g>
</g>
</svg>
