<?xml version="1.0" encoding="iso-8859-1"?>
<!-- Generator: Adobe Illustrator 19.0.0, SVG Export Plug-In . SVG Version: 6.00 Build 0)  -->
<svg version="1.1" id="Capa_1" xmlns="http://www.w3.org/2000/svg" xmlns:xlink="http://www.w3.org/1999/xlink" x="0px" y="0px"
	 viewBox="0 0 512 512" style="enable-background:new 0 0 512 512;" xml:space="preserve">
<path style="fill:#FD4E26;" d="M512,165.7l-37.5,30H35.099L0,165.7L61.5,54.101C64.2,48.999,69.3,45.7,75,45.7h362
	c5.7,0,10.8,3.3,13.5,8.401L512,165.7z"/>
<path style="fill:#FD3018;" d="M512,165.7l-37.5,30H256v-150h181c5.7,0,10.8,3.3,13.5,8.401L512,165.7z"/>
<path style="fill:#FE9923;" d="M361,165.7l-43.801,30H181l-30-30l92.1-142.8c2.699-4.499,7.8-6.599,12.9-6.599
	c5.1,0,10.201,2.1,12.9,6.599L361,165.7z"/>
<path style="fill:#FE8821;" d="M361,165.7l-43.801,30H256V16.3c5.099,0,10.201,2.1,12.9,6.599L361,165.7z"/>
<path style="fill:#FFB766;" d="M497,465.7H331v-300h181v90.005l-30,28.141v70.292l30,21.555V450.7
	C512,458.984,505.284,465.7,497,465.7z"/>
<path style="fill:#FFC380;" d="M181,465.7H13.887C6.218,465.7,0,459.482,0,451.812v-76.108l30-28.101V286.63L0,255.688V165.7h181
	V465.7z"/>
<rect x="151" y="165.7" style="fill:#FFDFB3;" width="210" height="270"/>
<rect x="256" y="165.7" style="fill:#FFCF99;" width="105" height="270"/>
<path style="fill:#08469C;" d="M286,315.7h-60c-8.401,0-15,6.599-15,15v90c0,8.399,6.599,15,15,15h60c8.401,0,15-6.601,15-15v-90
	C301,322.299,294.401,315.7,286,315.7z"/>
<path style="fill:#4DBBEB;" d="M301,270.7c0,8.399-6.599,15-15,15h-60c-8.401,0-15-6.601-15-15c0-8.401,6.599-15,15-15h60
	C294.401,255.7,301,262.299,301,270.7z"/>
<path style="fill:#063E8B;" d="M301,330.7v90c0,8.399-6.599,15-15,15h-30v-120h30C294.401,315.7,301,322.299,301,330.7z"/>
<path style="fill:#159CE4;" d="M301,270.7c0,8.399-6.599,15-15,15h-30v-30h30C294.401,255.7,301,262.299,301,270.7z"/>
<path style="fill:#FCBF29;" d="M376,405.7H136c-8.401,0-15,6.599-15,15v60c0,8.399,6.599,15,15,15h240c8.401,0,15-6.601,15-15v-60
	C391,412.299,384.401,405.7,376,405.7z"/>
<path style="fill:#FE9923;" d="M391,420.7v60c0,8.399-6.599,15-15,15H256v-90h120C384.401,405.7,391,412.299,391,420.7z"/>
<path style="fill:#81C8EE;" d="M512,255.7h-75c-8.291,0-15,6.709-15,15v90c0,8.291,6.709,15,15,15h75V255.7z"/>
<path style="fill:#A4D9F5;" d="M75,255.7H0v120h75c8.291,0,15-6.709,15-15v-90C90,262.409,83.291,255.7,75,255.7z"/>
<g>
</g>
<g>
</g>
<g>
</g>
<g>
</g>
<g>
</g>
<g>
</g>
<g>
</g>
<g>
</g>
<g>
</g>
<g>
</g>
<g>
</g>
<g>
</g>
<g>
</g>
<g>
</g>
<g>
</g>
</svg>
