<?xml version="1.0" encoding="iso-8859-1"?>
<!-- Generator: Adobe Illustrator 19.0.0, SVG Export Plug-In . SVG Version: 6.00 Build 0)  -->
<svg version="1.1" id="Capa_1" xmlns="http://www.w3.org/2000/svg" xmlns:xlink="http://www.w3.org/1999/xlink" x="0px" y="0px"
	 viewBox="0 0 512 512" style="enable-background:new 0 0 512 512;" xml:space="preserve">
<path style="fill:#0A4EAF;" d="M511.501,44.912v209.591c0,24.85-20.06,44.912-44.912,44.912H45.411
	c-24.852,0-44.912-20.062-44.912-44.912V44.912C0.499,20.06,20.559,0,45.411,0h421.177C491.441,0,511.501,20.06,511.501,44.912z"/>
<path style="fill:#08469C;" d="M511.501,44.912v209.591c0,24.85-20.06,44.912-44.912,44.912H256V0h210.589
	C491.441,0,511.501,20.06,511.501,44.912z"/>
<path style="fill:#E1E4FB;" d="M45.411,269.474c-8.26,0-14.971-6.711-14.971-14.971V44.912c0-8.26,6.711-14.971,14.971-14.971
	h421.177c8.26,0,14.971,6.711,14.971,14.971v209.591c0,8.26-6.711,14.971-14.971,14.971H45.411z"/>
<path style="fill:#C5C9F7;" d="M466.589,29.942H256v239.532h210.589c8.26,0,14.971-6.711,14.971-14.971V44.912
	C481.559,36.652,474.849,29.942,466.589,29.942z"/>
<path style="fill:#FE9923;" d="M450.62,74.854c0,8.383-6.586,14.971-14.971,14.971H75.353c-8.385,0-14.971-6.588-14.971-14.971
	c0-8.385,6.586-14.971,14.971-14.971h360.296C444.034,59.883,450.62,66.469,450.62,74.854z"/>
<path style="fill:#FE8821;" d="M450.62,74.854c0,8.383-6.586,14.971-14.971,14.971H256V59.883h179.649
	C444.034,59.883,450.62,66.469,450.62,74.854z"/>
<path style="fill:#FE9923;" d="M450.62,134.737c0,8.383-6.586,14.971-14.971,14.971H75.353c-8.385,0-14.971-6.588-14.971-14.971
	c0-8.385,6.586-14.971,14.971-14.971h360.296C444.034,119.766,450.62,126.352,450.62,134.737z"/>
<path style="fill:#FE8821;" d="M450.62,134.737c0,8.383-6.586,14.971-14.971,14.971H256v-29.942h179.649
	C444.034,119.766,450.62,126.352,450.62,134.737z"/>
<path style="fill:#4DBBEB;" d="M300.912,119.766c0,24.85-20.06,44.912-44.912,44.912s-44.912-20.062-44.912-44.912
	c0-24.852,20.06-44.912,44.912-44.912S300.912,94.914,300.912,119.766z"/>
<path style="fill:#159CE4;" d="M300.912,119.766c0,24.85-20.06,44.912-44.912,44.912V74.854
	C280.852,74.854,300.912,94.914,300.912,119.766z"/>
<path style="fill:#4DBBEB;" d="M330.854,496.031V254.503h14.971c8.085,0,15.571-3.294,21.259-8.684l59.883-59.883
	c11.676-11.676,11.676-30.839,0-42.516c-11.677-11.677-30.841-11.677-42.518,0l-50.9,51.2H196.117
	c-32.936,0-59.883,26.947-59.883,59.883v89.825c0,19.76,17.067,36.228,44.912,26.349v125.355c0,8.268,6.703,14.971,14.971,14.971
	h29.942c8.268,0,14.971-6.703,14.971-14.971v-91.821c0-8.539,6.833-15.214,15.438-14.964c8.141,0.237,14.504,7.164,14.504,15.309
	v91.475c0,8.268,6.703,14.971,14.971,14.971h29.942C324.151,511.002,330.854,504.299,330.854,496.031z"/>
<path style="fill:#159CE4;" d="M330.854,497.029V254.503h14.971c8.085,0,15.571-3.294,21.259-8.684l59.883-59.883
	c11.676-11.676,11.676-30.839,0-42.516c-11.677-11.677-30.841-11.677-42.518,0l-50.9,51.2H256v195.618
	c8.385,0,14.971,6.586,14.971,14.971v91.821c0,8.268,6.703,14.971,14.971,14.971h29.942
	C324.151,512,330.854,505.297,330.854,497.029z"/>
<g>
</g>
<g>
</g>
<g>
</g>
<g>
</g>
<g>
</g>
<g>
</g>
<g>
</g>
<g>
</g>
<g>
</g>
<g>
</g>
<g>
</g>
<g>
</g>
<g>
</g>
<g>
</g>
<g>
</g>
</svg>
