<?xml version="1.0" encoding="iso-8859-1"?>
<!-- Generator: Adobe Illustrator 19.0.0, SVG Export Plug-In . SVG Version: 6.00 Build 0)  -->
<svg version="1.1" id="Capa_1" xmlns="http://www.w3.org/2000/svg" xmlns:xlink="http://www.w3.org/1999/xlink" x="0px" y="0px"
	 viewBox="0 0 512.001 512.001" style="enable-background:new 0 0 512.001 512.001;" xml:space="preserve">
<path style="fill:#A1A7B3;" d="M361.006,420.001v32c0,32.999-27.001,60-60,60h-90c-32.999,0-60-27.001-60-60v-32l15-30h180
	L361.006,420.001z"/>
<path style="fill:#979CA7;" d="M361.006,420.001v32c0,32.999-27.001,60-60,60h-45v-122h90L361.006,420.001z"/>
<path style="fill:#FCBF29;" d="M451.006,195.001c0,53.399-22.5,105.3-61.8,141.899c-15,14.101-25.499,54.901-28.2,83.101h-210
	c-2.999-28.2-14.099-69-30.3-84.901c-38.399-36.899-59.099-85.8-59.7-137.701C59.807,87.6,150.105-0.3,256.006,0.001h1.199
	C365.805,0.9,451.006,89.1,451.006,195.001z"/>
<path style="fill:#FE9923;" d="M451.006,195.001c0,53.399-22.5,105.3-61.8,141.899c-15,14.101-25.499,54.901-28.2,83.101h-105v-420
	h1.199C365.805,0.9,451.006,89.1,451.006,195.001z"/>
<path style="fill:#E1E4FB;" d="M271.006,285.001v30c0,8.401-6.599,15-15,15c-8.401,0-15-6.599-15-15v-30c0-8.401,6.599-15,15-15
	C264.407,270.001,271.006,276.6,271.006,285.001z"/>
<path style="fill:#C5C9F7;" d="M271.006,285.001v30c0,8.401-6.599,15-15,15v-60C264.407,270.001,271.006,276.6,271.006,285.001z"/>
<path style="fill:#E1E4FB;" d="M271.006,75.001v30c0,8.401-6.599,15-15,15c-8.401,0-15-6.599-15-15v-30c0-8.401,6.599-15,15-15
	C264.407,60.001,271.006,66.6,271.006,75.001z"/>
<path style="fill:#C5C9F7;" d="M271.006,75.001v30c0,8.401-6.599,15-15,15v-60C264.407,60.001,271.006,66.6,271.006,75.001z"/>
<g>
	<path style="fill:#E1E4FB;" d="M256.006,90.001c-57.9,0-105,47.1-105,105s47.1,105,105,105s105-47.1,105-105
		S313.906,90.001,256.006,90.001z"/>
	<path style="fill:#E1E4FB;" d="M192.403,146.383c-3.838,0-7.676-1.465-10.605-4.395l-21.255-21.24
		c-5.859-5.845-5.859-15.352,0-21.211s15.352-5.859,21.211,0l21.255,21.24c5.859,5.845,5.859,15.352,0,21.211
		C200.079,144.918,196.241,146.383,192.403,146.383z"/>
</g>
<g>
	<path style="fill:#C5C9F7;" d="M342.403,296.383c-3.838,0-7.676-1.465-10.605-4.395l-21.255-21.24
		c-5.859-5.845-5.859-15.352,0-21.211s15.352-5.859,21.211,0l21.255,21.24c5.859,5.845,5.859,15.352,0,21.211
		C350.079,294.918,346.241,296.383,342.403,296.383z"/>
	<path style="fill:#C5C9F7;" d="M319.624,146.383c-3.838,0-7.676-1.465-10.605-4.395c-5.859-5.859-5.859-15.352,0-21.211
		l21.24-21.24c5.859-5.859,15.352-5.859,21.211,0s5.859,15.352,0,21.211l-21.24,21.24
		C327.3,144.918,323.462,146.383,319.624,146.383z"/>
</g>
<path style="fill:#E1E4FB;" d="M166.006,210.001h-30c-8.291,0-15-6.709-15-15s6.709-15,15-15h30c8.291,0,15,6.709,15,15
	S174.297,210.001,166.006,210.001z"/>
<path style="fill:#C5C9F7;" d="M376.006,210.001h-30c-8.291,0-15-6.709-15-15s6.709-15,15-15h30c8.291,0,15,6.709,15,15
	S384.297,210.001,376.006,210.001z"/>
<path style="fill:#E1E4FB;" d="M171.148,294.859c-3.838,0-7.676-1.465-10.605-4.395c-5.859-5.845-5.859-15.352,0-21.211
	l21.24-21.255c5.859-5.859,15.352-5.859,21.211,0c5.859,5.845,5.859,15.352,0,21.211l-21.24,21.255
	C178.824,293.394,174.986,294.859,171.148,294.859z"/>
<path style="fill:#C5C9F7;" d="M361.006,195.001c0,57.9-47.1,105-105,105v-210C313.906,90.001,361.006,137.101,361.006,195.001z"/>
<path style="fill:#4DBBEB;" d="M256.006,120.001c-41.4,0-75,33.6-75,75s33.6,75,75,75s75-33.6,75-75
	S297.406,120.001,256.006,120.001z"/>
<path style="fill:#159CE4;" d="M331.006,195.001c0,41.4-33.6,75-75,75v-150C297.406,120.001,331.006,153.601,331.006,195.001z"/>
<path style="fill:#E1E4FB;" d="M256.006,150.001c-24.901,0-45,20.099-45,45s20.099,45,45,45s45-20.099,45-45
	S280.907,150.001,256.006,150.001z"/>
<path style="fill:#C5C9F7;" d="M301.006,195.001c0,24.901-20.099,45-45,45v-90C280.907,150.001,301.006,170.1,301.006,195.001z"/>
<path style="fill:#4DBBEB;" d="M256.006,180.001c-8.401,0-15,6.599-15,15s6.599,15,15,15c8.401,0,15-6.599,15-15
	S264.407,180.001,256.006,180.001z"/>
<path style="fill:#159CE4;" d="M271.006,195.001c0,8.401-6.599,15-15,15v-30C264.407,180.001,271.006,186.6,271.006,195.001z"/>
<g>
</g>
<g>
</g>
<g>
</g>
<g>
</g>
<g>
</g>
<g>
</g>
<g>
</g>
<g>
</g>
<g>
</g>
<g>
</g>
<g>
</g>
<g>
</g>
<g>
</g>
<g>
</g>
<g>
</g>
</svg>
