<?xml version="1.0" encoding="iso-8859-1"?>
<!-- Generator: Adobe Illustrator 19.0.0, SVG Export Plug-In . SVG Version: 6.00 Build 0)  -->
<svg version="1.1" id="Capa_1" xmlns="http://www.w3.org/2000/svg" xmlns:xlink="http://www.w3.org/1999/xlink" x="0px" y="0px"
	 viewBox="0 0 512 512" style="enable-background:new 0 0 512 512;" xml:space="preserve">
<path style="fill:#0A4EAF;" d="M511.5,45v240c0,24.853-20.147,45-45,45h-407c-16.569,0-30-13.431-30-30V45c0-24.853,20.147-45,45-45
	h392C491.353,0,511.5,20.147,511.5,45z"/>
<path style="fill:#08469C;" d="M511.5,45v240c0,24.899-20.099,45-45,45h-347V0h347C491.401,0,511.5,20.099,511.5,45z"/>
<path style="fill:#E1E4FB;" d="M59.5,300V45c0-8.276,6.724-15,15-15h392c8.276,0,15,6.724,15,15v240c0,8.276-6.724,15-15,15H59.5z"
	/>
<path style="fill:#C5C9F7;" d="M466.5,30h-347v270h347c8.276,0,15-6.724,15-15V45C481.5,36.724,474.776,30,466.5,30z"/>
<path style="fill:#4DBBEB;" d="M164.5,165c0,24.899-20.099,45-45,45s-45-20.101-45-45c0-24.901,20.099-45,45-45
	S164.5,140.099,164.5,165z"/>
<path style="fill:#159CE4;" d="M164.5,165c0,24.899-20.099,45-45,45v-90C144.401,120,164.5,140.099,164.5,165z"/>
<path style="fill:#FD4E26;" d="M427.602,101.7L359.5,172.2h-30l-64.799-74.7C283.899,74.7,312.4,60,344.5,60
	C378.1,60,408.4,76.199,427.602,101.7z"/>
<path style="fill:#FEDB41;" d="M264.677,97.593c-1.119,1.324-2.254,2.626-3.307,4.005C247.852,119.271,239.5,141.085,239.5,165
	c0,57.891,47.109,105,105,105l30-17.827v-89.041l-30-17.335L264.677,97.593z"/>
<path style="fill:#FD3018;" d="M427.602,101.7L359.5,172.2h-15V60C378.1,60,408.4,76.199,427.602,101.7z"/>
<path style="fill:#10BB67;" d="M427.602,101.7L344.5,145.8V270c57.9,0,105-47.1,105-105C449.5,141,441.099,119.399,427.602,101.7z"
	/>
<path style="fill:#4DBBEB;" d="M45.5,416.4V437v75h60v-17c0-8.401,6.599-15,15-15s15,6.599,15,15v17h60V351l20.099,7.2
	c8.401,2.999,16.201,2.1,23.401-1.5l60-30c14.7-7.201,20.7-25.201,13.2-40.201c-7.2-14.7-24.901-21-40.201-13.2l-40.499,20.1
	l-44.7-44.7c-5.7-5.7-13.2-8.699-21.301-8.699h-79h-26c-32.999,0-60,26.999-60,60v90C0.5,409.799,17.901,426.299,45.5,416.4z"/>
<path style="fill:#159CE4;" d="M135.5,495v17h60V351l20.099,7.2c8.401,2.999,16.201,2.1,23.401-1.5l60-30
	c14.7-7.201,20.7-25.201,13.2-40.201c-7.2-14.7-24.901-21-40.201-13.2l-40.499,20.1l-44.7-44.7c-5.7-5.7-13.2-8.699-21.301-8.699
	h-45v240C128.901,480,135.5,486.599,135.5,495z"/>
<g>
</g>
<g>
</g>
<g>
</g>
<g>
</g>
<g>
</g>
<g>
</g>
<g>
</g>
<g>
</g>
<g>
</g>
<g>
</g>
<g>
</g>
<g>
</g>
<g>
</g>
<g>
</g>
<g>
</g>
</svg>
