<?xml version="1.0" encoding="iso-8859-1"?>
<!-- Generator: Adobe Illustrator 19.0.0, SVG Export Plug-In . SVG Version: 6.00 Build 0)  -->
<svg version="1.1" id="Capa_1" xmlns="http://www.w3.org/2000/svg" xmlns:xlink="http://www.w3.org/1999/xlink" x="0px" y="0px"
	 viewBox="0 0 512 512" style="enable-background:new 0 0 512 512;" xml:space="preserve">
<path style="fill:#FCBF29;" d="M220.201,177.599c-7.8,7.8-14.702,14.399-21.301,21.301c-6.899,6.599-13.5,13.499-21.301,21.299
	c-5.7,5.7-15.3,5.7-21.299,0c-36.901-37.2-65.4-65.7-102.601-102.9C43.5,127.5,35.7,135.3,25.499,145.499
	C16.199,155.099,0,148.5,0,135V15c0-4.2,1.8-7.8,4.501-10.501C7.2,1.8,10.8,0,15,0h120c13.5,0,20.099,16.199,10.499,25.499
	C135.3,35.7,127.5,43.5,117.299,53.699c37.202,37.2,65.7,65.7,102.902,102.599C225.901,162.299,225.901,171.899,220.201,177.599z"/>
<path style="fill:#FE9923;" d="M198.9,198.9c-6.899,6.599-13.5,13.499-21.301,21.299c-5.7,5.7-15.3,5.7-21.299,0
	c-36.901-37.2-65.4-65.7-102.601-102.9C43.5,127.5,35.7,135.3,25.499,145.499C16.199,155.099,0,148.5,0,135V15
	c0-4.2,1.8-7.8,4.501-10.501L198.9,198.9z"/>
<path style="fill:#FCBF29;" d="M512,377v120c0,4.2-1.8,7.8-4.501,10.499C504.8,510.2,501.2,512,497,512H377
	c-13.5,0-20.099-16.201-10.499-25.501l28.2-28.2c-42.902-42.9-75.601-75.599-118.2-118.2c-6-5.999-6-15.298,0-21.299
	c7.5-7.8,13.799-15,20.099-22.2c6.599-6.901,13.2-14.101,20.4-22.202c5.7-5.698,15.3-5.698,21,0c43.5,43.5,76.8,76.802,120.3,120.3
	l28.2-28.2C495.801,356.899,512,363.8,512,377z"/>
<path style="fill:#FE9923;" d="M507.499,507.499C504.8,510.2,501.2,512,497,512H377c-13.5,0-20.099-16.201-10.499-25.501l28.2-28.2
	c-42.902-42.9-75.601-75.599-118.2-118.2c-6-5.999-6-15.298,0-21.299c7.5-7.8,13.799-15,20.099-22.2L507.499,507.499z"/>
<path style="fill:#FCBF29;" d="M512,15v120c0,13.2-16.199,20.099-25.499,10.499c-10.201-10.199-18.001-17.999-28.2-28.2
	c-37.202,37.2-65.7,65.7-102.601,102.9c-5.999,5.7-15.599,5.7-21.299,0c-7.8-7.8-14.401-14.7-21.301-21.299
	c-6.599-6.901-13.5-13.5-21.301-21.301c-5.7-5.7-5.7-15.3,0-21.301c37.202-36.899,65.7-65.4,102.902-102.599
	C384.5,43.5,376.7,35.7,366.501,25.499C356.901,16.199,363.5,0,377,0h120c4.2,0,7.8,1.8,10.499,4.499C510.2,7.2,512,10.8,512,15z"/>
<path style="fill:#FE9923;" d="M512,15v120c0,13.2-16.199,20.099-25.499,10.499c-10.201-10.199-18.001-17.999-28.2-28.2
	c-37.202,37.2-65.7,65.7-102.601,102.9c-5.999,5.7-15.599,5.7-21.299,0c-7.8-7.8-14.401-14.7-21.301-21.299L507.499,4.499
	C510.2,7.2,512,10.8,512,15z"/>
<path style="fill:#FCBF29;" d="M235.499,340.099c-42.599,42.601-75.298,75.3-118.2,118.2l28.2,28.2
	C155.099,495.799,148.5,512,135,512H15c-4.2,0-7.8-1.8-10.499-4.501C1.8,504.8,0,501.2,0,497V377
	c0-13.5,16.199-20.101,25.499-10.501l28.2,28.2c43.5-43.499,76.8-76.8,120.3-120.3c5.7-5.698,15.3-5.698,21,0
	c7.2,8.101,13.801,15.3,20.4,22.202c6.301,7.2,12.599,14.399,20.099,22.2C241.5,324.8,241.5,334.1,235.499,340.099z"/>
<path style="fill:#FE9923;" d="M235.499,340.099c-42.599,42.601-75.298,75.3-118.2,118.2l28.2,28.2
	C155.099,495.799,148.5,512,135,512H15c-4.2,0-7.8-1.8-10.499-4.501L215.4,296.6c6.301,7.2,12.599,14.399,20.099,22.2
	C241.5,324.8,241.5,334.1,235.499,340.099z"/>
<path style="fill:#4DBBEB;" d="M376,181v90c0,19.799-17.401,36.299-45,26.4V482c0,16.5-13.5,30-30,30s-30-13.5-30-30V376
	c0-8.401-6.599-15-15-15s-15,6.599-15,15v106c0,16.5-13.5,30-30,30s-30-13.5-30-30V297.4c-27.599,9.899-45-6.601-45-26.4v-90
	c0-33.001,27.001-60,60-60h120C348.999,121,376,147.999,376,181z"/>
<path style="fill:#159CE4;" d="M376,181v90c0,19.799-17.401,36.299-45,26.4V482c0,16.5-13.5,30-30,30s-30-13.5-30-30V376
	c0-8.401-6.599-15-15-15V121h60C348.999,121,376,147.999,376,181z"/>
<path style="fill:#4DBBEB;" d="M301,46c0,24.899-20.099,45-45,45s-45-20.101-45-45c0-24.901,20.099-46,45-46S301,21.099,301,46z"/>
<path style="fill:#159CE4;" d="M301,46c0,24.899-20.099,45-45,45V0C280.901,0,301,21.099,301,46z"/>
<g>
</g>
<g>
</g>
<g>
</g>
<g>
</g>
<g>
</g>
<g>
</g>
<g>
</g>
<g>
</g>
<g>
</g>
<g>
</g>
<g>
</g>
<g>
</g>
<g>
</g>
<g>
</g>
<g>
</g>
</svg>
