<?xml version="1.0" encoding="iso-8859-1"?>
<!-- Generator: Adobe Illustrator 19.0.0, SVG Export Plug-In . SVG Version: 6.00 Build 0)  -->
<svg version="1.1" id="Capa_1" xmlns="http://www.w3.org/2000/svg" xmlns:xlink="http://www.w3.org/1999/xlink" x="0px" y="0px"
	 viewBox="0 0 512 512" style="enable-background:new 0 0 512 512;" xml:space="preserve">
<g>
	<polygon style="fill:#001D56;" points="311.796,152 368.236,377.747 397.328,370.481 342.706,152 	"/>
	<path style="fill:#001D56;" d="M451,512c-3.838,0-7.676-1.465-10.605-4.395l-31.934-31.934c-5.859-5.859-5.859-15.352,0-21.211
		s15.352-5.859,21.211,0l31.934,31.934c5.859,5.859,5.859,15.352,0,21.211C458.676,510.535,454.838,512,451,512z"/>
</g>
<g>
	<path style="fill:#032E68;" d="M61,512c-3.838,0-7.676-1.465-10.605-4.395c-5.859-5.859-5.859-15.352,0-21.211l21.973-21.973
		c5.859-5.859,15.352-5.859,21.211,0s5.859,15.352,0,21.211l-21.973,21.973C68.676,510.535,64.838,512,61,512z"/>
	<path style="fill:#032E68;" d="M111.706,287l12.605,63.003c1.421,7.134,7.69,12.056,14.692,12.056c0.981,0,1.963-0.088,2.959-0.293
		c8.115-1.626,13.389-9.521,11.763-17.651L142.297,287H111.706z"/>
</g>
<path style="fill:#0A4EAF;" d="M466,422c0,30.599-22.8,56.1-53.401,59.7L256,499.1l-109.799,12.299C142.899,511.7,139.3,512,136,512
	c-49.501,0-90-40.501-90-90c0-49.501,40.499-90,90-90c3.3,0,6.899,0.3,10.201,0.599L256,344.9l156.599,17.4
	C443.2,365.9,466,391.399,466,422z"/>
<g>
	<path style="fill:#08469C;" d="M466,422c0,30.599-22.8,56.1-53.401,59.7L256,499.1V344.9l156.599,17.4
		C443.2,365.9,466,391.399,466,422z"/>
	<path style="fill:#08469C;" d="M173.91,302H91c-8.291,0-15-6.709-15-15s6.709-15,15-15h82.91c8.291,0,15,6.709,15,15
		S182.201,302,173.91,302z"/>
</g>
<g>
	<path style="fill:#159CE4;" d="M271,92c-24.814,0-45-21.186-45-46s20.186-46,45-46s45,21.186,45,46S295.814,92,271,92z"/>
	<path style="fill:#159CE4;" d="M344.5,193.7l-60,30c-12.396,6.193-26.113,3.286-34.801-5.402L219.101,187.7l-27.9,55.8l93.3,46.8
		c15.474,7.427,21.893,28.116,11.4,43.2l-60,90c-3.001,4.799-7.2,8.399-12.301,10.499c-3.9,2.1-8.099,3.001-12.599,3.001
		c-2.1,0-3.9-0.3-6-0.601c-16.5-3.3-27.299-19.2-24-35.4c1.199-6,3.9-11.4,8.101-15.601l38.099-56.699l-89.7-45
		c-7.388-4.438-9.3-7.202-9.3-7.202c-7.114-7.998-9.855-20.239-3.9-32.999l60-120c9.142-18.283,33.91-21.891,48.001-7.8l44.7,44.7
		L317.5,140.3c15.281-7.641,32.738-1.459,40.501,13.2C364.612,167.926,360.363,185.766,344.5,193.7z"/>
</g>
<g>
</g>
<g>
</g>
<g>
</g>
<g>
</g>
<g>
</g>
<g>
</g>
<g>
</g>
<g>
</g>
<g>
</g>
<g>
</g>
<g>
</g>
<g>
</g>
<g>
</g>
<g>
</g>
<g>
</g>
</svg>
