<?xml version="1.0" encoding="iso-8859-1"?>
<!-- Generator: Adobe Illustrator 19.0.0, SVG Export Plug-In . SVG Version: 6.00 Build 0)  -->
<svg version="1.1" id="Capa_1" xmlns="http://www.w3.org/2000/svg" xmlns:xlink="http://www.w3.org/1999/xlink" x="0px" y="0px"
	 viewBox="0 0 512 512" style="enable-background:new 0 0 512 512;" xml:space="preserve">
<g>
	<path style="fill:#159CE4;" d="M136.327,106c-4.644,0-9.287,1.099-13.418,3.164l-76,45c-14.866,7.418-20.829,25.461-13.418,40.254
		c7.521,15.042,25.65,20.72,40.254,13.418L143.402,166h49.38l31.317-60H136.327z"/>
	<path style="fill:#159CE4;" d="M136.655,248.28l-21.598,43.184L20.82,332.553c-15.385,5.109-24.304,21.924-18.94,37.954
		c5.168,15.559,21.978,24.25,37.939,18.955l106-45c7.603-2.549,13.755-7.881,17.344-15.044l14.81-29.604L136.655,248.28z"/>
</g>
<path style="fill:#4DBBEB;" d="M271.327,91c-24.814,0-45-20.186-45-45s20.186-46,45-46s45,21.186,45,46S296.141,91,271.327,91z"/>
<path style="fill:#001D56;" d="M409.433,482l66.683-289.267c1.787-8.086-3.311-16.099-11.396-17.9
	c-8.042-1.626-16.084,3.325-17.9,11.396L378.631,482H409.433z"/>
<path style="fill:#08469C;" d="M406.697,241c-4.849,0-9.609-2.344-12.495-6.68c-4.6-6.899-2.739-16.201,4.16-20.801l90-60
	c6.885-4.585,16.201-2.739,20.801,4.16s2.739,16.201-4.16,20.801l-90,60C412.439,240.18,409.553,241,406.697,241z"/>
<path style="fill:#4DBBEB;" d="M201.22,450.462c-15.664-5.201-24.27-22.156-18.999-37.939l37.749-84.276l-70.928-47.285
	c-12.554-8.379-16.948-24.888-10.195-38.379l60-120c9.115-18.168,33.469-22.356,48.032-7.793L298.104,166h48.578
	c16.538,0,30,13.462,30,30s-13.462,30-30,30h-61c-8.013,0-15.542-3.12-21.211-8.789l-30.557-30.557l-29.561,59.063l67.969,45.322
	c11.221,7.485,16.084,21.65,11.821,34.453l-45,106C233.868,447.341,216.78,455.699,201.22,450.462z"/>
<path style="fill:#0A4EAF;" d="M481.682,482c0,16.5-13.5,30-30,30h-392c-16.5,0-30-13.5-30-30s13.5-30,30-30h392
	C468.182,452,481.682,465.5,481.682,482z"/>
<path style="fill:#08469C;" d="M481.682,482c0,16.5-13.5,30-30,30h-196v-60h196C468.182,452,481.682,465.5,481.682,482z"/>
<g>
</g>
<g>
</g>
<g>
</g>
<g>
</g>
<g>
</g>
<g>
</g>
<g>
</g>
<g>
</g>
<g>
</g>
<g>
</g>
<g>
</g>
<g>
</g>
<g>
</g>
<g>
</g>
<g>
</g>
</svg>
