<?xml version="1.0" encoding="iso-8859-1"?>
<!-- Generator: Adobe Illustrator 19.0.0, SVG Export Plug-In . SVG Version: 6.00 Build 0)  -->
<svg version="1.1" id="Capa_1" xmlns="http://www.w3.org/2000/svg" xmlns:xlink="http://www.w3.org/1999/xlink" x="0px" y="0px"
	 viewBox="0 0 512 512" style="enable-background:new 0 0 512 512;" xml:space="preserve">
<path style="fill:#08469C;" d="M451,105v392c0,8.401-6.599,15-15,15H151l-30-31.5V80.7l30-26.4l180,30.3L451,105z"/>
<path style="fill:#063E8B;" d="M451,105v392c0,8.401-6.599,15-15,15H331V84.6L451,105z"/>
<path style="fill:#4DBBEB;" d="M61,60v377c0,36.216,25.809,66.513,60,73.482c4.849,0.989,9.864,1.518,15,1.518h15V54.375L61,60z"/>
<path style="fill:#FD4E26;" d="M376,90h-90c-8.401,0-15,6.599-15,15v180c0,12.001,13.5,19.2,23.401,12.599l36.599-24.6l36.599,24.6
	C377.5,304.2,391,297.001,391,285V105C391,96.599,384.401,90,376,90z"/>
<path style="fill:#FD3018;" d="M391,105v180c0,12.001-13.5,19.2-23.401,12.599L331,272.999V90h45C384.401,90,391,96.599,391,105z"/>
<path style="fill:#032E68;" d="M444.401,92.401c5.4,3.9,7.798,10.8,5.999,17.1C448.299,115.8,442.599,120,436,120H121
	c-32.999,0-60-27.001-60-60S88.001,0,121,0h315c6.599,0,12.299,4.2,14.399,10.499c1.8,6.301-0.599,13.2-5.999,16.8
	c-0.901,0.601-2.1,1.501-3.301,2.701L391,60l50.4,30C442.599,91.199,443.5,91.8,444.401,92.401z"/>
<path style="fill:#001D56;" d="M444.401,92.401c5.4,3.9,7.798,10.8,5.999,17.1C448.299,115.8,442.599,120,436,120H331V0h105
	c6.599,0,12.299,4.2,14.399,10.499c1.8,6.301-0.599,13.2-5.999,16.8c-0.901,0.601-2.1,1.501-3.301,2.701L391,60l50.4,30
	C442.599,91.199,443.5,91.8,444.401,92.401z"/>
<path style="fill:#E6EEFF;" d="M421,60c0-11.4,12.599-24.3,20.099-30H121c-16.5,0-30,13.5-30,30s13.5,30,30,30h320.4
	C434.2,84.6,421,72.001,421,60z"/>
<path style="fill:#DAE2F2;" d="M441.4,90H331V30h110.099C433.599,35.7,421,48.6,421,60C421,72.001,434.2,84.6,441.4,90z"/>
<g>
</g>
<g>
</g>
<g>
</g>
<g>
</g>
<g>
</g>
<g>
</g>
<g>
</g>
<g>
</g>
<g>
</g>
<g>
</g>
<g>
</g>
<g>
</g>
<g>
</g>
<g>
</g>
<g>
</g>
</svg>
