<?xml version="1.0" encoding="iso-8859-1"?>
<!-- Generator: Adobe Illustrator 19.0.0, SVG Export Plug-In . SVG Version: 6.00 Build 0)  -->
<svg version="1.1" id="Capa_1" xmlns="http://www.w3.org/2000/svg" xmlns:xlink="http://www.w3.org/1999/xlink" x="0px" y="0px"
	 viewBox="0 0 512 512" style="enable-background:new 0 0 512 512;" xml:space="preserve">
<path style="fill:#FD4E26;" d="M443.2,308.5c-12.299,11.999-30.899,11.4-42.599,0L316,223.599V391H196V223.599L112.899,307
	C101.201,318.399,82,318.699,70,306.7C58.299,295,56.201,278.5,72.7,262C97.301,237.1,185.501,147.9,205,128.699
	c5.4-5.7,12.9-8.699,21-8.699h60c8.101,0,15.601,2.999,21.301,8.699C400,221.7,436.901,259.6,442.899,265
	C455.799,281.8,452.199,299.2,443.2,308.5z"/>
<path style="fill:#FD3018;" d="M443.2,308.5c-12.299,11.999-30.899,11.4-42.599,0L316,223.599V391h-60V120h30
	c8.101,0,15.601,2.999,21.301,8.699C400,221.7,436.901,259.6,442.899,265C455.799,281.8,452.199,299.2,443.2,308.5z"/>
<path style="fill:#E1E4FB;" d="M497,346H15c-8.291,0-15-6.709-15-15s6.709-15,15-15h482c8.291,0,15,6.709,15,15S505.291,346,497,346
	z"/>
<path style="fill:#C5C9F7;" d="M497,316H256v30h241c8.291,0,15-6.709,15-15S505.291,316,497,316z"/>
<path style="fill:#032E68;" d="M15,406c-8.291,0-15-6.709-15-15V271c0-8.291,6.709-15,15-15s15,6.709,15,15v120
	C30,399.291,23.291,406,15,406z"/>
<path style="fill:#001D56;" d="M497,406c-8.291,0-15-6.709-15-15V271c0-8.291,6.709-15,15-15s15,6.709,15,15v120
	C512,399.291,505.291,406,497,406z"/>
<path style="fill:#FD4E26;" d="M301,45c0,24.899-20.099,45-45,45s-45-20.101-45-45c0-24.901,20.099-45,45-45S301,20.099,301,45z"/>
<path style="fill:#4DBBEB;" d="M301,271c0,24.899-20.099,45-45,45s-45-20.101-45-45c0-24.901,20.099-45,45-45S301,246.099,301,271z"
	/>
<path style="fill:#159CE4;" d="M301,271c0,24.899-20.099,45-45,45v-90C280.901,226,301,246.099,301,271z"/>
<path style="fill:#FD3018;" d="M301,45c0,24.899-20.099,45-45,45V0C280.901,0,301,20.099,301,45z"/>
<path style="fill:#4DBBEB;" d="M430.901,347.5l-60,90c-7.8,12.001-22.2,16.199-34.801,11.7l-20.1-6.901V497c0,8.399-6.599,15-15,15
	h-90c-8.401,0-15-6.601-15-15v-55l-20.099,7.2c-12.301,4.499-27.001,0.3-34.801-11.7l-60-90c-9.3-13.801-5.4-32.401,8.401-41.4
	c13.5-9.3,32.1-5.7,41.4,8.401L170.8,373.9l25.2-25.201c2.701-2.999,6.599-4.499,10.499-4.499H305.5c3.9,0,7.798,1.5,10.499,4.499
	L341.2,373.9l39.899-59.399c9.3-14.101,27.601-17.701,41.4-8.401C436.3,315.099,440.2,333.699,430.901,347.5z"/>
<path style="fill:#159CE4;" d="M430.901,347.5l-60,90c-7.8,12.001-22.2,16.199-34.801,11.7l-20.1-6.901V497c0,8.399-6.599,15-15,15
	h-45V344.2h49.501c3.9,0,7.798,1.5,10.499,4.499l25.201,25.201l39.899-59.399c9.3-14.101,27.601-17.701,41.4-8.401
	C436.3,315.099,440.2,333.699,430.901,347.5z"/>
<g>
</g>
<g>
</g>
<g>
</g>
<g>
</g>
<g>
</g>
<g>
</g>
<g>
</g>
<g>
</g>
<g>
</g>
<g>
</g>
<g>
</g>
<g>
</g>
<g>
</g>
<g>
</g>
<g>
</g>
</svg>
