<?xml version="1.0" encoding="iso-8859-1"?>
<!-- Generator: Adobe Illustrator 19.0.0, SVG Export Plug-In . SVG Version: 6.00 Build 0)  -->
<svg version="1.1" id="Capa_1" xmlns="http://www.w3.org/2000/svg" xmlns:xlink="http://www.w3.org/1999/xlink" x="0px" y="0px"
	 viewBox="0 0 512 512" style="enable-background:new 0 0 512 512;" xml:space="preserve">
<path style="fill:#C4CAD9;" d="M251.564,281.734l-74.09,73.788c-2.699,3.001-6.598,4.5-10.497,4.5s-7.799-1.5-10.497-4.5
	c-5.999-5.699-5.999-15.298,0-20.997l73.788-74.088c5.999-5.699,15.298-5.699,21.298,0
	C257.263,266.436,257.263,275.735,251.564,281.734z"/>
<path style="fill:#B8BFCC;" d="M251.564,281.734l-74.09,73.788c-2.699,3.001-6.598,4.5-10.497,4.5s-7.799-1.5-10.497-4.5
	l95.085-95.085C257.263,266.436,257.263,275.735,251.564,281.734z"/>
<path style="fill:#E6EEFF;" d="M234.8,264.192c-52.721-59.28-50.074-148.901,6.159-205.132c58.687-58.687,153.283-58.698,211.981,0
	c59.027,59.023,58.272,153.695,0.005,211.978C382.924,341.057,275.385,318.397,234.8,264.192z"/>
<path style="fill:#DAE2F2;" d="M452.94,59.061L240.686,271.314c44.314,48.933,145.391,66.589,212.258-0.277
	C511.212,212.755,511.967,118.084,452.94,59.061z"/>
<path style="fill:#4DA6FF;" d="M451.934,285.033c0,8.399-6.599,14.998-14.998,14.998H256.963c-8.399,0-14.998-6.599-14.998-14.998
	c0-3.939,0.22-7.819,0.65-11.648c0.08-0.69,0.16-1.39,0.25-2.08c0.04-0.3,0.08-0.61,0.13-0.91c0.07-0.54,0.15-1.08,0.23-1.62
	c7.009-44.903,42.564-80.458,87.467-87.467c0.04-0.01,0.09-0.01,0.14-0.03c5.259-0.81,10.638-1.23,16.118-1.23
	c53.372,0,97.556,40.024,104.135,91.626c0.04,0.35,0.08,0.7,0.12,1.05C451.694,276.765,451.934,280.874,451.934,285.033z"/>
<path style="fill:#4596E6;" d="M451.204,272.725c-12.028,11.678-25.126,20.687-38.774,27.306H280.35
	c-14.638-6.919-27.556-15.998-37.734-26.646c0.08-0.69,0.16-1.39,0.25-2.08c0.04-0.3,0.08-0.61,0.13-0.91
	c0.07-0.54,0.15-1.08,0.23-1.62l87.467-87.467c0.04-0.01,0.09-0.01,0.14-0.03c5.259-0.81,10.638-1.23,16.118-1.23
	c53.372,0,97.556,40.024,104.135,91.626C451.124,272.025,451.164,272.375,451.204,272.725z"/>
<path style="fill:#032E68;" d="M463.632,48.369c-64.491-64.491-168.875-64.491-233.366,0c-64.489,64.491-64.489,168.875,0,233.366
	c64.491,64.489,168.875,64.489,233.366,0C528.122,217.243,528.122,112.859,463.632,48.369z M447.434,254.738
	c-1.5,2.1-3.299,3.899-5.098,5.699c-26.396,26.396-60.89,39.594-95.386,39.594s-68.99-13.198-95.386-39.594
	c-1.8-1.8-3.599-3.599-5.098-5.699c-47.694-53.093-45.894-134.081,5.098-185.073c52.792-52.792,137.98-52.792,190.772,0
	C493.328,120.657,495.128,201.645,447.434,254.738z"/>
<path style="fill:#001D56;" d="M463.632,48.369l-21.298,21.298c50.992,50.991,52.792,131.979,5.098,185.073
	c-1.5,2.1-3.299,3.899-5.098,5.699c-26.396,26.396-60.89,39.594-95.386,39.594s-68.99-13.198-95.386-39.594l-21.297,21.296
	c64.491,64.489,168.875,64.489,233.366,0C528.122,217.243,528.122,112.859,463.632,48.369z"/>
<path style="fill:#032E68;" d="M198.772,355.522l-42.293-42.293c-5.999-5.999-15.599-5.999-21.298,0L13.274,435.137
	c-17.698,17.396-17.698,46.192,0,63.591c17.698,17.696,45.892,17.696,63.591,0L198.771,376.82
	C204.771,371.121,204.771,361.522,198.772,355.522z"/>
<path style="fill:#001D56;" d="M198.772,376.82L76.865,498.728c-17.698,17.696-45.892,17.696-63.591,0l164.5-164.203l20.997,20.997
	C204.771,361.522,204.771,371.121,198.772,376.82z"/>
<path style="fill:#4DA6FF;" d="M405.441,106.56c-6.3-26.696-30.296-46.493-58.491-46.493c-32.994,0-59.991,26.995-59.991,59.991
	c0,28.196,19.796,52.192,46.493,58.491c4.199,0.899,8.7,1.5,13.498,1.5c32.994,0,59.991-26.997,59.991-59.991
	C406.941,115.258,406.34,110.759,405.441,106.56z"/>
<path style="fill:#4596E6;" d="M406.941,120.058c0,32.994-26.997,59.991-59.991,59.991c-4.798,0-9.299-0.601-13.498-1.5l71.99-71.99
	C406.34,110.759,406.941,115.258,406.941,120.058z"/>
<g>
</g>
<g>
</g>
<g>
</g>
<g>
</g>
<g>
</g>
<g>
</g>
<g>
</g>
<g>
</g>
<g>
</g>
<g>
</g>
<g>
</g>
<g>
</g>
<g>
</g>
<g>
</g>
<g>
</g>
</svg>
