<?xml version="1.0" encoding="iso-8859-1"?>
<!-- Generator: Adobe Illustrator 19.0.0, SVG Export Plug-In . SVG Version: 6.00 Build 0)  -->
<svg version="1.1" id="Capa_1" xmlns="http://www.w3.org/2000/svg" xmlns:xlink="http://www.w3.org/1999/xlink" x="0px" y="0px"
	 viewBox="0 0 511.998 511.998" style="enable-background:new 0 0 511.998 511.998;" xml:space="preserve">
<path style="fill:#FFC380;" d="M463.722,295.236l-17.748-17.557L301.226,134.473l-0.575-0.57l-39.796-39.372l-3.402-1.236
	l-0.185-0.061l-61.975-20.35c-5.566-1.856-11.751-0.62-15.772,3.711L70.046,185.761c-4.02,4.329-5.567,10.516-3.711,15.772
	l29.996,90.3c168.232,201.632,139.782,169.161,170.707,200.086c17.938,18.245,47.314,18.245,65.561,0
	c8.351-8.351,12.678-19.174,13.298-29.998c11.133-0.617,21.958-5.256,30.305-13.607c8.351-8.349,12.99-19.174,13.607-30.305
	c10.825-0.62,21.958-4.947,30.308-13.607c8.349-8.351,12.678-19.174,13.298-29.996c11.133-0.62,21.956-5.258,30.305-13.607
	C481.968,342.86,481.968,313.481,463.722,295.236z"/>
<g>
	<path style="fill:#FFDFB3;" d="M292.878,383.901c-12.077-12.077-31.657-12.077-43.734,0c12.077-12.077,12.077-31.657,0-43.734
		c-12.077-12.077-31.657-12.077-43.734,0c12.077-12.077,12.077-31.657,0-43.734c-12.077-12.077-31.657-12.077-43.734,0
		c12.077-12.077,12.077-31.657,0-43.734c-12.077-12.077-31.657-12.077-43.734,0l-43.734,43.734
		c-12.077,12.077-12.077,31.657,0,43.734c12.077,12.077,31.657,12.077,43.734,0c-12.077,12.077-12.077,31.657,0,43.734
		c12.077,12.077,31.657,12.077,43.734,0c-12.077,12.077-12.077,31.657,0,43.734c12.077,12.077,31.657,12.077,43.734,0
		c-12.077,12.077-12.077,31.657,0,43.734c12.077,12.077,31.657,12.077,43.734,0l43.734-43.734
		C304.955,415.557,304.955,395.978,292.878,383.901z"/>
	<path style="fill:#FFDFB3;" d="M441.764,185.761L332.6,76.596c-4.33-4.329-10.516-5.567-15.772-3.711l-51.954,17.318
		c-11.029,4.128-7.334,3.045-14.227,6.493c-9.113,9.113-55.212,55.21-64.323,64.325c-12.061,12.061-12.061,31.545,0,43.603
		c11.2,11.2,30.155,12.776,43.603,0l70.721-70.721l0.096-0.096l0.479,0.666l144.748,143.206l0.43,0.24v-81.026
		C446.404,192.565,444.858,188.854,441.764,185.761z"/>
</g>
<path style="fill:#FD3018;" d="M452.807,234.12c-3.956,0-7.913-1.51-10.932-4.531L288.804,76.52c-6.04-6.04-6.04-15.825,0-21.865
	l43.73-43.729c6.04-6.04,15.825-6.04,21.865,0l153.07,153.07c6.04,6.04,6.04,15.825,0,21.865l-43.73,43.73
	C460.718,232.61,456.763,234.12,452.807,234.12z"/>
<path style="fill:#4DBBEB;" d="M59.192,234.12c-3.956,0-7.913-1.51-10.932-4.531L4.53,185.861c-6.04-6.04-6.04-15.825,0-21.865
	l153.07-153.07c6.04-6.04,15.825-6.04,21.865,0l43.73,43.73c6.04,6.04,6.04,15.825,0,21.865L70.124,229.591
	C67.104,232.61,63.148,234.12,59.192,234.12z"/>
<g>
</g>
<g>
</g>
<g>
</g>
<g>
</g>
<g>
</g>
<g>
</g>
<g>
</g>
<g>
</g>
<g>
</g>
<g>
</g>
<g>
</g>
<g>
</g>
<g>
</g>
<g>
</g>
<g>
</g>
</svg>
