<?xml version="1.0" encoding="iso-8859-1"?>
<!-- Generator: Adobe Illustrator 19.0.0, SVG Export Plug-In . SVG Version: 6.00 Build 0)  -->
<svg version="1.1" id="Capa_1" xmlns="http://www.w3.org/2000/svg" xmlns:xlink="http://www.w3.org/1999/xlink" x="0px" y="0px"
	 viewBox="0 0 512 512" style="enable-background:new 0 0 512 512;" xml:space="preserve">
<g>
	<path style="fill:#4DA6FF;" d="M481.965,151.007v194.986c0,8.4-6.599,14.999-14.999,14.999c-8.4,0-14.999-6.599-14.999-14.999
		V151.007c0-8.4,6.599-14.999,14.999-14.999C475.367,136.008,481.965,142.607,481.965,151.007z"/>
	<path style="fill:#4DA6FF;" d="M511.062,492.183l-29.998-90.993c-2.098-6-8.098-9.299-14.098-9.299c-6,0-12,3.3-14.098,9.299
		l-29.998,90.993c-1.802,4.499-0.901,9.597,1.8,13.498c2.999,3.9,7.499,6.301,12.298,6.301h59.996c4.799,0,9.299-2.401,12.298-6.301
		C511.963,501.781,512.864,496.682,511.062,492.183z"/>
</g>
<g>
	<path style="fill:#4596E6;" d="M509.262,505.681c-2.999,3.9-7.499,6.301-12.298,6.301h-29.998V391.891c6,0,12,3.3,14.098,9.299
		l29.998,90.993C512.864,496.682,511.963,501.781,509.262,505.681z"/>
	<path style="fill:#4596E6;" d="M481.965,151.007v194.986c0,8.4-6.599,14.999-14.999,14.999V136.008
		C475.367,136.008,481.965,142.607,481.965,151.007z"/>
</g>
<path style="fill:#032E68;" d="M421.97,181.005v104.992c0,4.2-1.8,8.4-5.099,11.099c-2.701,2.701-73.296,63.895-160.889,63.895
	S97.793,299.797,95.092,297.096c-3.3-2.699-5.099-6.898-5.099-11.099V181.005c0-8.4,6.599-14.999,14.999-14.999h301.978
	C415.371,166.006,421.97,172.604,421.97,181.005z"/>
<path style="fill:#001D56;" d="M421.97,181.005v104.992c0,4.2-1.8,8.4-5.099,11.099c-2.701,2.701-73.296,63.895-160.889,63.895
	V166.006h150.989C415.371,166.006,421.97,172.604,421.97,181.005z"/>
<path style="fill:#08469C;" d="M503.563,122.509L262.58,1.518c-2.098-0.899-4.199-1.5-6.599-1.5c-2.4,0-4.501,0.601-6.599,1.5
	L8.4,122.509C3.3,125.21,0,130.308,0,136.008c0,5.7,3.3,10.799,8.4,13.499l240.983,119.991c2.098,0.899,4.199,1.5,6.599,1.5
	c2.4,0,4.501-0.601,6.599-1.5l240.983-119.991c5.101-2.701,8.4-7.799,8.4-13.499C511.963,130.308,508.663,125.21,503.563,122.509z"
	/>
<path style="fill:#063E8B;" d="M511.963,136.008c0,5.7-3.3,10.799-8.4,13.499L262.58,269.498c-2.098,0.899-4.199,1.5-6.599,1.5
	V0.018c2.401,0,4.501,0.601,6.599,1.5l240.983,120.991C508.663,125.21,511.963,130.308,511.963,136.008z"/>
<path style="fill:#032E68;" d="M255.982,91.011c-24.899,0-44.997,20.098-44.997,44.997s20.098,44.997,44.997,44.997
	s44.997-20.098,44.997-44.997S280.881,91.011,255.982,91.011z"/>
<path style="fill:#001D56;" d="M300.978,136.008c0,24.899-20.098,44.997-44.997,44.997V91.011
	C280.881,91.011,300.978,111.11,300.978,136.008z"/>
<path style="fill:#54CCFF;" d="M466.966,330.994c-24.899,0-44.997,20.098-44.997,44.997s20.098,44.997,44.997,44.997
	c24.899,0,44.997-20.098,44.997-44.997S491.865,330.994,466.966,330.994z"/>
<path style="fill:#4BB8E6;" d="M511.963,375.991c0,24.899-20.098,44.997-44.997,44.997v-89.993
	C491.865,330.994,511.963,351.092,511.963,375.991z"/>
<g>
</g>
<g>
</g>
<g>
</g>
<g>
</g>
<g>
</g>
<g>
</g>
<g>
</g>
<g>
</g>
<g>
</g>
<g>
</g>
<g>
</g>
<g>
</g>
<g>
</g>
<g>
</g>
<g>
</g>
</svg>
