<?xml version="1.0" encoding="iso-8859-1"?>
<!-- Generator: Adobe Illustrator 19.0.0, SVG Export Plug-In . SVG Version: 6.00 Build 0)  -->
<svg version="1.1" id="Capa_1" xmlns="http://www.w3.org/2000/svg" xmlns:xlink="http://www.w3.org/1999/xlink" x="0px" y="0px"
	 viewBox="0 0 512 512" style="enable-background:new 0 0 512 512;" xml:space="preserve">
<path style="fill:#E1E4FB;" d="M301.003,241v15c0,24.899-20.099,44.999-44.999,44.999h-59.999
	c-24.901,0-44.999-20.101-44.999-44.999v-15l15-31h119.999L301.003,241z"/>
<path style="fill:#C5C9F7;" d="M301.003,241v15c0,24.899-20.099,44.999-44.999,44.999h-30v-90.999h59.999L301.003,241z"/>
<path style="fill:#FEDB41;" d="M293.503,24.603c-18.9-16.201-42.598-24.6-67.499-24.6c-12.9,0-26.1,2.1-38.699,6.899
	c-27.301,10.201-49.199,32.401-59.1,59.699c-12.599,33.3-8.101,68.999,11.1,96.9c7.8,11.699,11.7,22.798,11.7,33.898v43.6h149.998
	V197.1c0-10.801,3.9-22.202,11.1-32.1c12.301-17.701,18.9-38.401,18.9-59.999C331.003,73.801,317.202,44.703,293.503,24.603z"/>
<g>
	<path style="fill:#FCBF29;" d="M331.003,105.002c0,21.599-6.599,42.299-18.9,59.999c-7.2,9.899-11.1,21.299-11.1,32.1V241h-74.999
		V0.003c24.901,0,48.599,8.399,67.499,24.6C317.202,44.703,331.003,73.801,331.003,105.002z"/>
	<path style="fill:#FCBF29;" d="M271.003,105.002c0,8.399-6.599,15-15,15h-59.999c-8.401,0-15-6.601-15-15c0-8.401,6.599-15,15-15
		h59.999C264.404,90.002,271.003,96.601,271.003,105.002z"/>
</g>
<path style="fill:#FFD499;" d="M360.401,301c-19.199,0-37.2,5.7-52.799,16.8c-14.7,10.8-34.199,13.2-47.698,13.2
	c-94.217,0-60.681,0-78.899,0c-16.5,0-30,13.5-30,30c0,16.581,13.351,30,30,30c16.2,0,58.733,0,74.999,0c8.284,0,15,6.714,15,15
	c0,8.284-6.716,15-15,15c-25.182,0-42.31,0-66.605,0c-9.287,0-18.574-2.197-26.821-6.343L43.453,348.094
	c-14.8-7.375-32.813-1.494-40.269,13.418c-7.441,14.854-1.386,32.866,13.418,40.254l191.809,103.889
	c8.247,4.146,17.52,6.343,26.807,6.343h110.067c33.706,0,63.412-11.131,90.486-30l10.003-120.999
	C433.255,325.813,398.628,301,360.401,301z"/>
<path style="fill:#159CE4;" d="M497.001,511.997h-59.999c-8.291,0-15-6.709-15-15V345.999c0-8.291,6.709-15,15-15h59.999
	c8.291,0,15,6.709,15,15v150.998C512,505.288,505.292,511.997,497.001,511.997z"/>
<rect x="211.008" y="89.999" style="fill:#FCBF29;" width="30" height="150.998"/>
<g>
	<path style="fill:#FE9923;" d="M271.003,105.002c0,8.399-6.599,15-15,15h-30v-30h30C264.404,90.002,271.003,96.601,271.003,105.002
		z"/>
	<rect x="226.008" y="89.999" style="fill:#FE9923;" width="15" height="150.998"/>
</g>
<g>
</g>
<g>
</g>
<g>
</g>
<g>
</g>
<g>
</g>
<g>
</g>
<g>
</g>
<g>
</g>
<g>
</g>
<g>
</g>
<g>
</g>
<g>
</g>
<g>
</g>
<g>
</g>
<g>
</g>
</svg>
