<?xml version="1.0" encoding="iso-8859-1"?>
<!-- Generator: Adobe Illustrator 19.0.0, SVG Export Plug-In . SVG Version: 6.00 Build 0)  -->
<svg version="1.1" id="Capa_1" xmlns="http://www.w3.org/2000/svg" xmlns:xlink="http://www.w3.org/1999/xlink" x="0px" y="0px"
	 viewBox="0 0 512 512" style="enable-background:new 0 0 512 512;" xml:space="preserve">
<path style="fill:#E6EEFF;" d="M406,0H106c-8.401,0-15,6.599-15,15v211c0,8.399,6.599,15,15,15h300c8.401,0,15-6.601,15-15V15
	C421,6.599,414.401,0,406,0z"/>
<path style="fill:#C5C9F7;" d="M421,15v211c0,8.399-6.599,15-15,15H256V0h150C414.401,0,421,6.599,421,15z"/>
<g>
	<path style="fill:#FD3018;" d="M406,271c-32.999,0-60,27.001-60,60s27.001,60,60,60s60-27.001,60-60S438.999,271,406,271z"/>
	<path style="fill:#FD3018;" d="M406,391c-57.9,0-105,48.1-105,106c0,8.401,6.599,15,15,15h181c8.401,0,15-6.599,15-15
		C512,439.1,463.9,391,406,391z"/>
</g>
<g>
	<path style="fill:#FD4E26;" d="M106,271c-32.999,0-60,27.001-60,60s27.001,60,60,60s60-27.001,60-60S138.999,271,106,271z"/>
	<path style="fill:#FD4E26;" d="M106,391C48.1,391,0,439.1,0,497c0,8.401,6.599,15,15,15h181c8.401,0,15-6.599,15-15
		C211,439.1,163.9,391,106,391z"/>
</g>
<path style="fill:#0A4EAF;" d="M451,15c0,8.401-6.599,15-15,15H76c-8.401,0-15-6.599-15-15S67.599,0,76,0h360
	C444.401,0,451,6.599,451,15z"/>
<g>
	<path style="fill:#4DBBEB;" d="M361,165c0,8.399-6.599,15-15,15H166c-8.401,0-15-6.601-15-15c0-8.401,6.599-15,15-15h15v-15
		c0-8.401,6.599-15,15-15s15,6.599,15,15v15h30v-45c0-8.401,6.599-15,15-15s15,6.599,15,15v45h30V75c0-8.401,6.599-15,15-15
		s15,6.599,15,15v75h15C354.401,150,361,156.599,361,165z"/>
	<path style="fill:#4DBBEB;" d="M256,271c-32.999,0-60,27.001-60,60s27.001,60,60,60s60-27.001,60-60S288.999,271,256,271z"/>
	<path style="fill:#4DBBEB;" d="M256,391c-57.9,0-105,48.1-105,106c0,8.401,6.599,15,15,15h180c8.401,0,15-6.599,15-15
		C361,439.1,313.9,391,256,391z"/>
</g>
<g>
	<path style="fill:#159CE4;" d="M361,497c0,8.401-6.599,15-15,15h-90V391C313.9,391,361,439.1,361,497z"/>
	<path style="fill:#159CE4;" d="M316,331c0,32.999-27.001,60-60,60V271C288.999,271,316,298.001,316,331z"/>
	<path style="fill:#159CE4;" d="M361,165c0,8.399-6.599,15-15,15h-90V90c8.401,0,15,6.599,15,15v45h30V75c0-8.401,6.599-15,15-15
		s15,6.599,15,15v75h15C354.401,150,361,156.599,361,165z"/>
</g>
<path style="fill:#08469C;" d="M451,15c0,8.401-6.599,15-15,15H256V0h180C444.401,0,451,6.599,451,15z"/>
<g>
</g>
<g>
</g>
<g>
</g>
<g>
</g>
<g>
</g>
<g>
</g>
<g>
</g>
<g>
</g>
<g>
</g>
<g>
</g>
<g>
</g>
<g>
</g>
<g>
</g>
<g>
</g>
<g>
</g>
</svg>
