<?xml version="1.0" encoding="iso-8859-1"?>
<!-- Generator: Adobe Illustrator 19.0.0, SVG Export Plug-In . SVG Version: 6.00 Build 0)  -->
<svg version="1.1" id="Capa_1" xmlns="http://www.w3.org/2000/svg" xmlns:xlink="http://www.w3.org/1999/xlink" x="0px" y="0px"
	 viewBox="0 0 512 512" style="enable-background:new 0 0 512 512;" xml:space="preserve">
<path style="fill:#FD3018;" d="M489.468,210h-60c-8.291,0-15-6.709-15-15V75c0-8.291,6.709-15,15-15h60c8.291,0,15,6.709,15,15v120
	C504.468,203.291,497.759,210,489.468,210z"/>
<path style="fill:#FD4E26;" d="M429.468,150h-122c-8.284,0-15-6.716-15-15V15c0-8.284,6.716-15,15-15h122c8.284,0,15,6.716,15,15
	v120C444.468,143.284,437.753,150,429.468,150z"/>
<g>
	<path style="fill:#08469C;" d="M307.468,210c-8.291,0-15-6.709-15-15V15c0-8.291,6.709-15,15-15s15,6.709,15,15v180
		C322.468,203.291,315.759,210,307.468,210z"/>
	<path style="fill:#08469C;" d="M307.468,511.985c-8.291,0-15-6.709-15-15V225c0-8.291,6.709-15,15-15s15,6.709,15,15v271.985
		C322.468,505.276,315.759,511.985,307.468,511.985z"/>
</g>
<path style="fill:#4DBBEB;" d="M322.468,180h-62.701l-50.999-51.301c-5.7-5.7-13.2-8.699-21.301-8.699h-99H67.532
	c-32.999,0-60,26.999-60,60v90c0,19.799,17.401,36.299,45,26.4V317v15h-0.063v150c0,16.5,13.5,30,30,30s30-13.5,30-30V376
	c0-8.401,6.599-15,15-15s15,6.599,15,15v106c0,16.5,13.5,30,30,30s30-13.5,30-30V207.299l23.699,24c5.7,5.7,13.2,8.701,21.301,8.701
	h75c16.5,0,30-13.5,30-30S338.968,180,322.468,180z"/>
<path style="fill:#159CE4;" d="M352.468,210c0,16.5-13.5,30-30,30h-75c-8.101,0-15.601-3.001-21.301-8.701l-23.699-24V482
	c0,16.5-13.5,30-30,30s-30-13.5-30-30V376c0-8.401-6.599-15-15-15V120h60c8.101,0,15.601,2.999,21.301,8.699L259.768,180h62.701
	C338.968,180,352.468,193.5,352.468,210z"/>
<path style="fill:#4DBBEB;" d="M172.468,45c0,24.901-20.099,45-45,45s-45-20.099-45-45s20.099-45,45-45S172.468,20.099,172.468,45z"
	/>
<path style="fill:#159CE4;" d="M172.468,45c0,24.901-20.099,45-45,45V0C152.369,0,172.468,20.099,172.468,45z"/>
<g>
</g>
<g>
</g>
<g>
</g>
<g>
</g>
<g>
</g>
<g>
</g>
<g>
</g>
<g>
</g>
<g>
</g>
<g>
</g>
<g>
</g>
<g>
</g>
<g>
</g>
<g>
</g>
<g>
</g>
</svg>
