<?xml version="1.0" encoding="iso-8859-1"?>
<!-- Generator: Adobe Illustrator 19.0.0, SVG Export Plug-In . SVG Version: 6.00 Build 0)  -->
<svg version="1.1" id="Capa_1" xmlns="http://www.w3.org/2000/svg" xmlns:xlink="http://www.w3.org/1999/xlink" x="0px" y="0px"
	 viewBox="0 0 512 512" style="enable-background:new 0 0 512 512;" xml:space="preserve">
<path style="fill:#4DBBEB;" d="M316,346v136c0,16.5-13.5,30-30,30c-7.5,0-14.399-2.701-20.099-7.8L256,495.5l-9.901,8.699
	c-5.7,5.099-12.599,7.8-20.099,7.8c-16.5,0-30-13.5-30-30V346H316z"/>
<path style="fill:#159CE4;" d="M316,346v136c0,16.5-13.5,30-30,30c-7.5,0-14.399-2.701-20.099-7.8L256,495.5V346H316z"/>
<path style="fill:#08469C;" d="M436,512c-8.291,0-15-6.709-15-15V286c0-8.291,6.709-15,15-15s15,6.709,15,15v211
	C451,505.291,444.291,512,436,512z"/>
<g>
	<path style="fill:#0A4EAF;" d="M76,512c-8.291,0-15-6.709-15-15V286c0-8.291,6.709-15,15-15s15,6.709,15,15v211
		C91,505.291,84.291,512,76,512z"/>
	<path style="fill:#0A4EAF;" d="M436,271H76c-8.284,0-15,6.716-15,15v75h375c8.284,0,15-6.716,15-15v-60
		C451,277.716,444.284,271,436,271z"/>
</g>
<path style="fill:#08469C;" d="M451,286v75H256v-90h180C444.284,271,451,277.716,451,286z"/>
<path style="fill:#4DBBEB;" d="M457.301,51.299L316,192.299V271H136c-24.901,0-38.699-28.5-24-48.001l60-91
	c5.7-7.5,14.399-11.999,24-11.999h107.701L414.699,8.699C420.399,2.999,427.899,0,436,0s15.601,2.999,21.301,8.699
	C468.999,20.4,468.999,39.6,457.301,51.299z"/>
<path style="fill:#159CE4;" d="M457.301,51.299L316,192.299V271h-60V120h47.701L414.699,8.699C420.399,2.999,427.899,0,436,0
	s15.601,2.999,21.301,8.699C468.999,20.4,468.999,39.6,457.301,51.299z"/>
<path d="M316,301h-90c-8.291,0-15-6.709-15-15s6.709-15,15-15h90c8.291,0,15,6.709,15,15S324.291,301,316,301z"/>
<path style="fill:#4DBBEB;" d="M301,45c0,24.899-20.099,45-45,45s-45-20.101-45-45c0-24.901,20.099-45,45-45S301,20.099,301,45z"/>
<path style="fill:#159CE4;" d="M301,45c0,24.899-20.099,45-45,45V0C280.901,0,301,20.099,301,45z"/>
<path style="fill:#032E68;" d="M481,286c0,8.399-6.599,15-15,15H46c-8.401,0-15-6.601-15-15c0-8.401,6.599-15,15-15h420
	C474.401,271,481,277.599,481,286z"/>
<path style="fill:#001D56;" d="M481,286c0,8.399-6.599,15-15,15H256v-30h210C474.401,271,481,277.599,481,286z"/>
<g>
</g>
<g>
</g>
<g>
</g>
<g>
</g>
<g>
</g>
<g>
</g>
<g>
</g>
<g>
</g>
<g>
</g>
<g>
</g>
<g>
</g>
<g>
</g>
<g>
</g>
<g>
</g>
<g>
</g>
</svg>
