<?xml version="1.0" encoding="iso-8859-1"?>
<!-- Generator: Adobe Illustrator 19.0.0, SVG Export Plug-In . SVG Version: 6.00 Build 0)  -->
<svg version="1.1" id="Capa_1" xmlns="http://www.w3.org/2000/svg" xmlns:xlink="http://www.w3.org/1999/xlink" x="0px" y="0px"
	 viewBox="0 0 512 512" style="enable-background:new 0 0 512 512;" xml:space="preserve">
<path style="fill:#FE9923;" d="M275.087,443.075l-120-30C135.019,408.065,121,390.106,121,369.423v-37.061c0-8.291,6.709-15,15-15
	s15,6.709,15,15v37.061c0,6.899,4.673,12.876,11.367,14.561l119.985,30c4.57,1.069,9.229,0.117,12.876-2.739
	c3.677-2.856,5.771-7.163,5.771-11.821V381.45c0-8.291,6.709-15,15-15s15,6.709,15,15v17.974c0,13.96-6.299,26.88-17.3,35.464
	C302.37,443.736,288.114,446.371,275.087,443.075z"/>
<polygon style="fill:#FD4E26;" points="30,191.796 30,320.204 482,432.704 482,79.296 "/>
<polygon style="fill:#FD3018;" points="30,256 30,320.204 482,432.704 482,256 "/>
<path style="fill:#FCBF29;" d="M30,361L30,361c-16.569,0-30-13.431-30-30V181c0-16.569,13.431-30,30-30l0,0
	c16.569,0,30,13.431,30,30v150C60,347.569,46.569,361,30,361z"/>
<path style="fill:#FE9923;" d="M0,256v75c0,16.567,13.431,30,30,30s30-13.433,30-30v-75H0z"/>
<path style="fill:#FCBF29;" d="M482,481L482,481c-16.569,0-30-13.431-30-30V61c0-16.569,13.431-30,30-30l0,0
	c16.569,0,30,13.431,30,30v390C512,467.569,498.569,481,482,481z"/>
<path style="fill:#FE9923;" d="M452,256v195c0,16.567,13.431,30,30,30s30-13.433,30-30V256H452z"/>
<g>
</g>
<g>
</g>
<g>
</g>
<g>
</g>
<g>
</g>
<g>
</g>
<g>
</g>
<g>
</g>
<g>
</g>
<g>
</g>
<g>
</g>
<g>
</g>
<g>
</g>
<g>
</g>
<g>
</g>
</svg>
